# Blender v2.79 (sub 7) OBJ File: ''
# www.blender.org
mtllib base_L.mtl
o convex_1
v -0.284679 -0.319523 0.014232
v -0.285590 -0.339262 0.234389
v -0.296007 -0.328858 0.234389
v -0.202276 -0.339262 0.234389
v -0.203334 -0.333974 0.000000
v -0.202276 0.337611 0.234389
v -0.203334 0.332323 0.000000
v -0.334121 -0.262276 0.012300
v -0.254608 0.209292 0.656175
v -0.337677 0.212627 0.661383
v -0.337677 0.285590 0.234389
v -0.333786 0.269126 0.013951
v -0.325883 -0.209197 0.653447
v -0.254686 -0.209871 0.654500
v -0.337677 -0.276771 0.234389
v -0.285590 0.337611 0.234389
v -0.202276 -0.276771 0.255269
v -0.284752 0.319449 0.012679
v -0.202276 0.275185 0.255204
v -0.330582 -0.182594 0.626451
vn -0.7051 -0.7060 -0.0662
vn 1.0000 0.0000 -0.0045
vn -0.0936 0.0000 -0.9956
vn 0.0569 0.9532 0.2970
vn -0.9998 0.0007 -0.0177
vn -0.1078 0.0032 -0.9942
vn -0.0150 -0.0192 0.9997
vn 0.0624 -0.0040 0.9980
vn 0.0000 -0.9997 -0.0226
vn 0.0000 -0.9557 0.2943
vn -0.0134 -0.9553 0.2952
vn -0.9999 -0.0000 -0.0160
vn -1.0000 0.0000 -0.0000
vn 0.0000 0.9997 -0.0226
vn -0.7015 0.7024 0.1200
vn 0.0000 0.9597 0.2809
vn 1.0000 0.0000 -0.0000
vn 0.9894 -0.0460 0.1376
vn 0.9915 -0.0007 0.1303
vn -0.2044 -0.2088 -0.9563
vn -0.1892 -0.9779 -0.0885
vn -0.7155 0.6956 -0.0646
vn -0.1747 0.1456 -0.9738
vn -0.1680 0.9824 -0.0811
vn -0.7054 0.7063 -0.0605
vn 0.9896 0.0456 0.1366
vn 0.9916 0.0000 0.1294
vn -0.9894 -0.0303 0.1423
vn -0.9995 -0.0200 0.0229
vn -0.9908 -0.1261 0.0482
vn -0.6987 -0.6995 0.1499
vn -0.7798 -0.6238 -0.0532
vn -0.7751 -0.6200 0.1218
vn -0.7540 -0.6535 -0.0665
usemtl None
s off
f 1//1 2//1 3//1
f 4//2 5//2 6//2
f 6//2 5//2 7//2
f 5//3 8//3 7//3
f 9//4 6//4 10//4
f 8//5 11//5 12//5
f 7//6 8//6 12//6
f 10//7 13//7 14//7
f 9//8 10//8 14//8
f 5//9 4//9 2//9
f 4//10 14//10 2//10
f 14//11 13//11 2//11
f 11//12 8//12 15//12
f 10//13 11//13 15//13
f 6//14 7//14 16//14
f 11//15 10//15 16//15
f 10//16 6//16 16//16
f 4//17 6//17 17//17
f 14//18 4//18 17//18
f 9//19 14//19 17//19
f 8//20 5//20 1//20
f 5//21 2//21 1//21
f 12//22 11//22 18//22
f 7//23 12//23 18//23
f 16//24 7//24 18//24
f 11//25 16//25 18//25
f 6//26 9//26 19//26
f 17//17 6//17 19//17
f 9//27 17//27 19//27
f 13//28 10//28 20//28
f 10//29 15//29 20//29
f 15//30 13//30 20//30
f 2//31 13//31 3//31
f 15//32 8//32 3//32
f 13//33 15//33 3//33
f 8//34 1//34 3//34
o convex_0
v 0.277031 0.321852 0.230193
v -0.202276 0.295994 0.244750
v -0.191832 0.295994 0.244750
v -0.192937 0.325940 0.000000
v 0.330041 -0.267307 0.000000
v -0.192988 -0.327655 0.000000
v -0.189666 0.321852 0.230193
v 0.279176 0.325171 0.000343
v 0.267124 -0.323503 0.230193
v 0.326719 -0.263921 0.230193
v 0.326719 0.262270 0.230193
v 0.308050 0.056365 0.296812
v 0.269680 -0.327655 0.000000
v 0.329990 0.265603 0.000000
v -0.202276 -0.297579 0.244721
v -0.189666 -0.323503 0.230193
v -0.204492 0.151371 0.245560
v 0.193484 -0.047678 0.296812
v 0.300912 -0.046282 0.292312
v 0.193484 0.056365 0.296812
v 0.286989 0.311932 0.230193
v -0.191832 -0.297579 0.244721
vn 0.0000 0.4905 0.8714
vn 0.0000 0.0000 -1.0000
vn -0.0000 0.9998 0.0178
vn 0.0016 0.9999 0.0145
vn -0.8940 0.4476 0.0207
vn -0.0000 0.4906 0.8714
vn 0.7069 -0.7070 0.0206
vn 0.9999 0.0000 0.0144
vn 0.9629 0.0000 0.2698
vn 0.0000 -0.9998 0.0180
vn 0.0007 0.0064 -1.0000
vn 0.9999 0.0001 0.0142
vn -0.8944 -0.4468 0.0210
vn 0.0000 -0.4889 0.8724
vn -0.9989 0.0001 -0.0469
vn -0.9993 -0.0049 -0.0373
vn -0.9992 0.0151 -0.0363
vn -0.1290 -0.0025 0.9916
vn 0.2400 -0.2400 0.9406
vn 0.7864 -0.0815 0.6123
vn 0.0424 -0.0467 0.9980
vn 0.0437 -0.2235 0.9737
vn 0.0000 0.2123 0.9772
vn 0.0000 0.0000 1.0000
vn -0.1260 0.0075 0.9920
vn -0.1277 0.0000 0.9918
vn 0.3294 0.2635 0.9067
vn 0.7057 0.7084 0.0168
vn 0.2626 0.2636 0.9282
vn 0.7608 0.6489 0.0115
vn 0.7807 0.6246 0.0201
vn 0.0000 -0.4889 0.8723
vn 0.0178 -0.2302 0.9730
vn 0.0000 -0.2041 0.9790
vn 0.0166 0.2452 0.9693
usemtl None
s off
f 21//35 22//35 23//35
f 24//36 25//36 26//36
f 24//37 27//37 21//37
f 28//38 24//38 21//38
f 27//39 24//39 22//39
f 21//40 27//40 22//40
f 29//41 25//41 30//41
f 25//42 31//42 30//42
f 31//43 32//43 30//43
f 26//36 25//36 33//36
f 25//41 29//41 33//41
f 29//44 26//44 33//44
f 25//36 24//36 34//36
f 24//45 28//45 34//45
f 31//46 25//46 34//46
f 35//47 26//47 36//47
f 26//44 29//44 36//44
f 29//48 35//48 36//48
f 24//49 26//49 37//49
f 26//50 35//50 37//50
f 22//51 24//51 37//51
f 35//52 38//52 37//52
f 29//53 30//53 39//53
f 30//54 32//54 39//54
f 32//55 38//55 39//55
f 38//56 29//56 39//56
f 32//57 22//57 40//57
f 38//58 32//58 40//58
f 22//59 37//59 40//59
f 37//60 38//60 40//60
f 32//61 31//61 41//61
f 28//62 21//62 41//62
f 21//63 32//63 41//63
f 34//64 28//64 41//64
f 31//65 34//65 41//65
f 35//66 29//66 42//66
f 29//67 38//67 42//67
f 38//68 35//68 42//68
f 32//69 21//69 23//69
f 22//57 32//57 23//57
