# Blender v2.79 (sub 7) OBJ File: ''
# www.blender.org
mtllib forearm_roll_L.mtl
o convex_6
v 0.095207 -0.009082 0.029911
v 0.106952 -0.000050 0.029911
v 0.095207 -0.002759 0.029911
v 0.095207 0.004467 0.022685
v 0.095207 -0.009082 0.022685
v 0.106952 0.004467 0.022685
v 0.095230 0.004440 0.028997
v 0.106392 -0.008436 0.029566
v 0.106952 -0.009082 0.022685
v 0.106500 0.003945 0.028799
vn -0.0000 0.0000 1.0000
vn -1.0000 0.0000 0.0000
vn -0.0000 0.0000 -1.0000
vn -0.0000 1.0000 0.0043
vn 0.0604 -0.9933 0.0982
vn 0.0000 -1.0000 0.0000
vn 0.0333 -0.0433 0.9985
vn 0.9937 -0.0700 0.0874
vn 1.0000 0.0000 0.0000
vn 0.0453 0.9951 0.0883
vn 0.0288 0.2711 0.9621
vn 0.9872 0.1352 0.0845
vn -1.0000 0.0037 0.0037
vn -0.0291 0.1260 0.9916
usemtl None
s off
f 1//1 2//1 3//1
f 1//2 4//2 5//2
f 5//3 4//3 6//3
f 4//4 7//4 6//4
f 8//5 1//5 9//5
f 1//6 5//6 9//6
f 5//3 6//3 9//3
f 1//7 8//7 2//7
f 8//8 9//8 2//8
f 9//9 6//9 2//9
f 6//10 7//10 10//10
f 7//11 2//11 10//11
f 2//12 6//12 10//12
f 7//13 4//13 3//13
f 4//2 1//2 3//2
f 2//14 7//14 3//14
o convex_5
v 0.095446 -0.020590 0.013315
v 0.106952 -0.019925 0.012746
v 0.106500 -0.020377 0.013823
v 0.095207 -0.009084 0.029911
v 0.095207 -0.019925 0.012746
v 0.095207 -0.020828 0.036232
v 0.095465 -0.010206 0.040137
v 0.106468 -0.009567 0.029650
v 0.106952 -0.009084 0.021785
v 0.106500 -0.010369 0.039676
v 0.095207 -0.009084 0.021785
v 0.106952 -0.020828 0.036232
vn 0.0351 -0.9267 -0.3742
vn -1.0000 0.0000 0.0000
vn -0.9995 0.0144 0.0268
vn 0.0442 0.9970 0.0639
vn 0.0000 0.6404 -0.7681
vn 0.0446 0.9958 0.0795
vn 0.0192 0.9939 0.1086
vn 0.2751 0.9584 0.0758
vn -0.0000 1.0000 0.0000
vn -0.0000 -0.3451 0.9386
vn 1.0000 0.0000 0.0000
vn 0.0351 -0.3112 0.9497
vn 0.9990 0.0341 0.0277
vn -0.9373 -0.3483 -0.0134
vn 0.0000 -0.6501 -0.7598
vn 0.0000 -0.9999 -0.0104
vn 0.0202 -0.9996 -0.0205
vn 0.6721 -0.7399 -0.0284
usemtl None
s off
f 11//15 12//15 13//15
f 14//16 15//16 16//16
f 14//17 16//17 17//17
f 14//18 18//18 19//18
f 12//19 15//19 19//19
f 18//20 14//20 20//20
f 14//21 17//21 20//21
f 19//22 18//22 20//22
f 15//16 14//16 21//16
f 14//23 19//23 21//23
f 19//19 15//19 21//19
f 17//24 16//24 22//24
f 12//25 19//25 22//25
f 20//26 17//26 22//26
f 19//27 20//27 22//27
f 16//28 15//28 11//28
f 15//29 12//29 11//29
f 22//30 16//30 11//30
f 22//31 11//31 13//31
f 12//32 22//32 13//32
o convex_4
v 0.095207 0.022537 0.008223
v 0.106952 0.022537 0.008223
v 0.095606 0.023090 0.017873
v 0.095207 0.038799 -0.001706
v 0.106952 0.037895 0.000101
v 0.106410 0.038049 -0.014539
v 0.106500 0.027334 -0.014809
v 0.095762 0.038030 -0.014498
v 0.095473 0.027220 -0.015365
v 0.094000 0.036110 0.004168
v 0.095207 0.023441 0.019070
v 0.106500 0.023163 0.017715
v 0.106952 0.024347 0.018167
vn 0.0000 -0.9984 0.0572
vn 0.0756 0.9971 0.0077
vn 0.9993 0.0093 -0.0369
vn -0.0020 0.9982 -0.0601
vn -0.0040 0.0801 -0.9968
vn 0.0501 0.0256 -0.9984
vn 0.0058 0.9088 0.4172
vn -0.9527 0.2982 -0.0593
vn -0.9953 0.0339 -0.0905
vn -0.9948 -0.0976 -0.0306
vn -0.9962 -0.0864 0.0072
vn 0.9997 -0.0117 -0.0220
vn 0.0204 -0.9787 -0.2042
vn 0.0000 -0.9809 -0.1947
vn 0.1004 -0.3881 0.9162
vn 0.0779 0.7976 0.5981
vn -0.0089 0.7615 0.6481
vn 0.9230 -0.3787 0.0689
vn 1.0000 0.0000 0.0000
vn 0.0106 -0.9586 0.2846
vn -0.5315 -0.8441 0.0703
vn 0.0076 -0.9978 0.0662
usemtl None
s off
f 23//33 24//33 25//33
f 26//34 27//34 28//34
f 27//35 29//35 28//35
f 30//36 26//36 28//36
f 31//37 30//37 28//37
f 29//38 31//38 28//38
f 27//39 26//39 32//39
f 26//40 30//40 32//40
f 30//41 31//41 32//41
f 31//42 23//42 32//42
f 23//43 33//43 32//43
f 29//44 27//44 24//44
f 31//45 29//45 24//45
f 23//46 31//46 24//46
f 33//47 34//47 35//47
f 27//48 32//48 35//48
f 32//49 33//49 35//49
f 34//50 24//50 35//50
f 24//51 27//51 35//51
f 34//52 33//52 25//52
f 33//53 23//53 25//53
f 24//54 34//54 25//54
o convex_3
v 0.106500 0.019338 0.036236
v 0.095612 0.019388 0.036329
v 0.106456 0.011850 0.039456
v 0.106952 0.022537 0.019976
v 0.106500 0.010168 0.039572
v 0.106952 0.004470 0.022685
v 0.095207 0.004470 0.022685
v 0.095207 0.021632 0.010036
v 0.095207 0.022537 0.019976
v 0.106952 0.022537 0.010036
v 0.095412 0.010017 0.040215
v 0.095221 0.004492 0.028997
v 0.106499 0.005166 0.028727
v 0.106364 0.020004 0.035146
v 0.106952 0.021632 0.010036
v 0.095207 0.022537 0.010036
v 0.095797 0.020002 0.035141
vn 0.0097 0.3950 0.9186
vn 0.9997 0.0038 0.0255
vn 0.0000 -0.5933 -0.8050
vn -1.0000 -0.0000 0.0000
vn -0.0000 1.0000 0.0000
vn 1.0000 0.0000 0.0000
vn -0.9989 0.0343 0.0313
vn 0.9995 0.0109 0.0299
vn -1.0000 0.0003 0.0022
vn 0.0000 -1.0000 0.0035
vn -0.9999 0.0062 0.0140
vn 0.0378 -0.8967 0.4410
vn 0.9726 -0.2110 0.0972
vn 0.0642 -0.9062 0.4180
vn 0.0621 -0.9910 0.1188
vn -0.0000 0.9863 0.1647
vn 0.9343 0.3441 0.0937
vn 0.0084 0.8538 0.5206
vn 0.0000 0.0000 -1.0000
vn -0.8680 0.4832 0.1145
vn -0.0003 0.9863 0.1649
vn -0.0004 0.8884 0.4591
vn 0.0568 0.0702 0.9959
vn -0.0001 0.3831 0.9237
vn 0.9956 0.0321 0.0883
usemtl None
s off
f 36//55 37//55 38//55
f 39//56 40//56 41//56
f 41//57 42//57 43//57
f 42//58 44//58 43//58
f 44//59 39//59 45//59
f 39//60 41//60 45//60
f 37//61 44//61 46//61
f 40//62 39//62 36//62
f 44//63 42//63 47//63
f 42//64 41//64 47//64
f 46//65 44//65 47//65
f 40//66 46//66 47//66
f 41//67 40//67 48//67
f 40//68 47//68 48//68
f 47//69 41//69 48//69
f 39//70 44//70 49//70
f 36//71 39//71 49//71
f 37//72 36//72 49//72
f 41//57 43//57 50//57
f 43//73 45//73 50//73
f 45//60 41//60 50//60
f 43//58 44//58 51//58
f 44//59 45//59 51//59
f 45//73 43//73 51//73
f 44//74 37//74 52//74
f 49//75 44//75 52//75
f 37//76 49//76 52//76
f 46//77 40//77 38//77
f 37//78 46//78 38//78
f 40//79 36//79 38//79
o convex_2
v 0.106400 -0.038049 -0.014383
v 0.106952 -0.037090 0.001003
v 0.106358 -0.037984 -0.004501
v 0.094695 -0.020041 0.023433
v 0.095207 -0.021732 0.021781
v 0.106952 -0.021732 0.021781
v 0.095207 -0.026249 -0.016164
v 0.106952 -0.026249 -0.016164
v 0.094000 -0.033127 0.008253
v 0.095774 -0.038025 -0.014333
v 0.096612 -0.037988 -0.003689
v 0.106952 -0.020828 0.010939
v 0.095207 -0.020828 0.010939
v 0.095207 -0.037090 0.001003
v 0.106952 -0.020828 0.021781
vn 0.8116 -0.5841 0.0073
vn -0.0000 -0.6988 0.7153
vn 0.0000 -0.1492 -0.9888
vn 1.0000 -0.0000 0.0000
vn 0.9981 -0.0516 -0.0326
vn -0.3223 -0.7096 0.6265
vn 0.0000 -0.7648 0.6442
vn -0.9962 0.0829 -0.0259
vn 0.0863 -0.8012 0.5922
vn -0.0050 -0.1539 -0.9881
vn -0.0022 -1.0000 0.0037
vn -0.9961 -0.0582 -0.0656
vn -0.0000 0.9806 -0.1961
vn -0.9565 0.2861 -0.0572
vn -0.0000 0.9980 -0.0629
vn 0.0000 -0.9822 0.1880
vn 0.0000 -0.8775 0.4796
vn -0.4447 -0.8949 0.0381
vn -0.9660 -0.2576 -0.0200
vn 0.1336 0.0000 0.9910
vn 0.0641 0.9979 0.0000
vn 0.0010 -1.0000 0.0066
vn 0.0136 -0.9872 0.1589
usemtl None
s off
f 53//80 54//80 55//80
f 56//81 57//81 58//81
f 59//82 60//82 53//82
f 60//83 58//83 54//83
f 53//84 60//84 54//84
f 57//85 56//85 61//85
f 58//86 57//86 61//86
f 56//87 59//87 61//87
f 54//88 58//88 61//88
f 59//89 53//89 62//89
f 53//90 63//90 62//90
f 61//91 59//91 62//91
f 58//83 60//83 64//83
f 60//92 59//92 64//92
f 64//92 59//92 65//92
f 59//93 56//93 65//93
f 56//94 64//94 65//94
f 63//95 54//95 66//95
f 54//96 61//96 66//96
f 62//97 63//97 66//97
f 61//98 62//98 66//98
f 56//99 58//99 67//99
f 58//83 64//83 67//83
f 64//100 56//100 67//100
f 63//101 53//101 55//101
f 54//102 63//102 55//102
o convex_1
v 0.094303 0.035180 -0.024286
v 0.091593 0.035180 -0.024286
v 0.094303 0.036986 -0.020665
v 0.094303 -0.009983 -0.041461
v 0.095098 0.036921 -0.015367
v 0.095098 -0.037014 -0.015365
v 0.095151 -0.037055 -0.000775
v 0.095156 -0.019470 0.036299
v 0.094303 -0.036181 0.022683
v 0.091593 0.009885 -0.041461
v 0.091593 -0.009983 -0.041461
v 0.090843 0.007526 -0.007470
v 0.091593 -0.022626 0.036230
v 0.091593 -0.009080 0.041657
v 0.090884 -0.007477 0.007526
v 0.094303 0.041510 0.009129
v 0.091593 0.041510 0.009129
v 0.094303 0.035180 0.024490
v 0.094303 -0.024441 -0.035131
v 0.091593 0.041510 -0.009828
v 0.095146 0.011376 0.039653
v 0.095158 0.019388 0.036329
v 0.093384 -0.040152 -0.007737
v 0.094303 -0.041608 0.009129
v 0.091593 -0.040696 0.011838
v 0.091593 -0.041608 -0.008925
v 0.091593 0.008982 0.041657
v 0.094303 -0.009080 0.041657
v 0.090871 -0.007526 -0.007372
v 0.091593 -0.035278 -0.024286
v 0.094303 0.009885 -0.041461
v 0.094303 0.022536 -0.036034
v 0.090884 0.007379 0.007526
v 0.091593 0.024334 0.035327
v 0.091593 0.035180 0.024490
v 0.091593 0.024334 -0.035131
v 0.091593 -0.035278 0.024490
v 0.095126 0.037403 -0.001636
v 0.091593 -0.024441 -0.035131
v 0.094303 -0.035278 -0.024286
v 0.094303 0.024334 0.035327
v 0.094303 -0.023530 0.035327
v 0.094303 0.004458 0.041657
v 0.091593 -0.041608 0.009129
v 0.095144 -0.011463 0.039616
v 0.095155 -0.037992 -0.004305
v 0.094303 -0.037084 -0.020665
vn 0.0000 0.8949 -0.4463
vn 0.9995 -0.0000 -0.0305
vn 0.9958 -0.0827 0.0391
vn 0.0000 0.0000 -1.0000
vn -0.9998 0.0000 -0.0221
vn -0.9998 -0.0082 0.0204
vn 0.0000 0.9246 0.3810
vn 0.9982 -0.0244 -0.0556
vn 0.0000 -0.4011 -0.9160
vn 0.0000 1.0000 0.0000
vn -0.9998 0.0221 0.0000
vn -0.9997 0.0214 -0.0094
vn 1.0000 -0.0001 0.0035
vn 0.7550 -0.6485 -0.0971
vn 0.9943 -0.0990 0.0396
vn 0.0591 -0.9267 0.3711
vn 0.6668 -0.7385 -0.1001
vn -0.9998 0.0000 0.0208
vn 0.0000 -0.3719 0.9283
vn 0.0000 0.0000 1.0000
vn -0.9998 -0.0020 -0.0210
vn -1.0000 -0.0019 0.0009
vn -0.9997 -0.0208 -0.0086
vn 0.0000 0.3942 -0.9190
vn 0.9982 0.0235 -0.0547
vn -0.9998 0.0206 0.0029
vn -1.0000 0.0000 0.0027
vn -0.9998 0.0084 0.0204
vn 0.0000 0.7068 0.7074
vn -0.9998 0.0204 0.0084
vn -0.9997 0.0158 0.0158
vn 0.9891 0.1001 -0.1077
vn -0.9997 0.0094 -0.0214
vn -0.9997 0.0169 -0.0169
vn -0.0389 0.4010 -0.9153
vn 0.2032 0.6665 -0.7173
vn 0.0000 0.7071 -0.7071
vn -0.0438 -0.9184 0.3933
vn -0.9998 -0.0202 0.0087
vn -0.9997 -0.0154 0.0166
vn 0.9752 0.2210 -0.0097
vn 0.9946 0.0958 0.0395
vn 0.9958 0.0827 0.0384
vn 0.0000 -0.7074 -0.7068
vn -0.9997 -0.0162 -0.0162
vn -0.9997 -0.0090 -0.0205
vn 0.9880 -0.1094 -0.1093
vn 0.7475 0.2536 0.6140
vn 0.9560 0.2073 0.2075
vn 0.2927 0.3199 0.9011
vn 0.0000 0.3812 0.9245
vn 0.9314 -0.2573 0.2575
vn 0.1689 -0.3955 0.9028
vn 0.6547 -0.3033 0.6924
vn 0.0174 -0.6801 0.7329
vn 0.2298 -0.6880 0.6884
vn 0.3639 0.2180 0.9056
vn 0.9218 0.0000 0.3878
vn -0.9998 -0.0204 0.0069
vn 0.0000 -0.9477 0.3191
vn 0.0000 -1.0000 0.0000
vn -0.9998 -0.0207 0.0009
vn -0.9998 -0.0212 0.0000
vn 1.0000 -0.0001 0.0038
vn 0.7583 -0.2485 0.6026
vn 0.9243 -0.0007 0.3817
vn 1.0000 -0.0061 0.0027
vn 1.0000 -0.0000 -0.0052
vn 1.0000 -0.0001 -0.0000
vn 0.9928 -0.1157 0.0318
vn 0.9344 -0.3545 -0.0362
vn 1.0000 0.0005 -0.0021
vn 1.0000 0.0004 -0.0006
vn 0.7458 -0.6582 -0.1032
vn 0.6744 -0.7278 -0.1248
vn -0.1065 -0.9193 -0.3788
vn 0.9504 -0.2784 -0.1389
vn 0.0000 -0.8949 -0.4463
vn 0.7342 0.6713 -0.1019
vn 0.7242 0.6818 -0.1035
vn -0.0744 0.9135 -0.4000
vn 0.9502 0.2790 -0.1392
usemtl None
s off
f 68//103 69//103 70//103
f 71//104 72//104 73//104
f 74//105 75//105 76//105
f 77//106 71//106 78//106
f 79//107 77//107 78//107
f 80//108 81//108 82//108
f 83//109 84//109 85//109
f 71//110 73//110 86//110
f 78//111 71//111 86//111
f 84//112 83//112 87//112
f 79//113 84//113 87//113
f 69//114 79//114 87//114
f 88//115 75//115 89//115
f 90//116 73//116 91//116
f 74//117 76//117 91//117
f 76//118 92//118 91//118
f 90//119 91//119 93//119
f 82//120 81//120 94//120
f 81//121 80//121 95//121
f 94//122 81//122 95//122
f 79//123 78//123 96//123
f 82//124 79//124 96//124
f 97//125 93//125 96//125
f 71//106 77//106 98//106
f 72//104 71//104 98//104
f 77//126 99//126 98//126
f 99//127 72//127 98//127
f 84//128 79//128 100//128
f 79//129 82//129 100//129
f 94//130 101//130 100//130
f 82//120 94//120 100//120
f 85//109 84//109 102//109
f 101//131 85//131 102//131
f 84//132 100//132 102//132
f 100//133 101//133 102//133
f 72//134 99//134 68//134
f 77//135 79//135 103//135
f 79//136 69//136 103//136
f 99//137 77//137 103//137
f 68//138 99//138 103//138
f 69//139 68//139 103//139
f 92//140 76//140 104//140
f 82//141 92//141 104//141
f 80//142 82//142 104//142
f 72//143 83//143 105//143
f 83//144 85//144 105//144
f 85//145 89//145 105//145
f 86//146 97//146 106//146
f 78//111 86//111 106//111
f 97//147 96//147 106//147
f 96//148 78//148 106//148
f 86//149 73//149 107//149
f 97//146 86//146 107//146
f 85//131 101//131 108//131
f 88//150 89//150 108//150
f 89//151 85//151 108//151
f 94//152 88//152 108//152
f 101//153 94//153 108//153
f 76//154 75//154 109//154
f 95//155 80//155 109//155
f 75//156 95//156 109//156
f 80//157 104//157 109//157
f 104//158 76//158 109//158
f 88//159 94//159 110//159
f 95//160 88//160 110//160
f 94//122 95//122 110//122
f 92//161 82//161 111//161
f 91//162 92//162 111//162
f 93//163 91//163 111//163
f 82//164 96//164 111//164
f 96//165 93//165 111//165
f 75//166 88//166 112//166
f 95//167 75//167 112//167
f 88//168 95//168 112//168
f 75//169 74//169 113//169
f 73//170 72//170 113//170
f 89//171 75//171 113//171
f 74//172 91//172 113//172
f 91//173 73//173 113//173
f 72//174 105//174 113//174
f 105//175 89//175 113//175
f 73//176 90//176 114//176
f 90//177 93//177 114//177
f 93//178 97//178 114//178
f 107//179 73//179 114//179
f 97//180 107//180 114//180
f 83//181 72//181 70//181
f 87//182 83//182 70//182
f 69//183 87//183 70//183
f 72//184 68//184 70//184
o convex_0
v 0.091900 0.008252 0.008399
v 0.026141 0.007526 -0.005793
v 0.027099 0.007379 0.007526
v -0.019953 0.006553 0.007526
v 0.091900 -0.008350 0.008399
v 0.091900 -0.008350 -0.008203
v 0.091900 0.008252 -0.008203
v -0.020290 -0.007526 -0.007379
v -0.021345 0.006727 -0.007526
v -0.019943 -0.007477 0.007526
vn -0.0136 0.9998 0.0120
vn -0.0078 0.0000 1.0000
vn 1.0000 0.0000 0.0000
vn -0.0073 -1.0000 0.0000
vn -0.0060 0.0000 -1.0000
vn -0.0074 -0.0109 -0.9999
vn -0.9970 -0.0736 0.0235
vn -0.0078 -1.0000 0.0035
vn -0.9958 -0.0007 0.0921
vn -0.0110 0.9999 0.0000
vn -0.0139 0.9968 -0.0788
vn -0.0173 0.9998 0.0123
vn -0.0168 0.9569 0.2900
vn -0.0176 0.9998 0.0132
usemtl None
s off
f 115//185 116//185 117//185
f 115//186 118//186 119//186
f 120//187 121//187 119//187
f 121//187 115//187 119//187
f 120//188 119//188 122//188
f 121//189 120//189 123//189
f 120//190 122//190 123//190
f 123//191 122//191 124//191
f 119//186 118//186 124//186
f 122//192 119//192 124//192
f 118//193 123//193 124//193
f 115//194 121//194 116//194
f 121//195 123//195 116//195
f 116//196 123//196 117//196
f 118//197 115//197 117//197
f 123//198 118//198 117//198
