# Blender v2.79 (sub 7) OBJ File: ''
# www.blender.org
mtllib gripper_palm.mtl
o convex_0
v 0.088921 -0.049200 -0.019500
v 0.109708 -0.034438 -0.023547
v 0.098080 -0.045901 -0.019415
v 0.031976 0.021012 -0.003921
v 0.062739 0.046326 0.019016
v 0.059866 0.044304 -0.019223
v 0.117297 -0.020913 -0.023580
v 0.124386 0.014068 -0.019493
v 0.124620 -0.013759 -0.019589
v 0.124508 0.015655 0.019124
v 0.071939 -0.049295 -0.019537
v 0.064278 -0.047503 0.019021
v 0.061313 -0.045641 -0.019306
v 0.032395 -0.020442 -0.006839
v 0.031668 -0.007300 0.020005
v 0.032046 0.006127 -0.020256
v 0.046198 -0.027167 -0.023768
v 0.032450 -0.011590 -0.018612
v 0.032048 0.018011 0.012417
v 0.046105 0.027627 0.023420
v 0.116816 0.031461 0.019893
v 0.118684 0.032942 -0.019710
v 0.101159 0.044761 0.019001
v 0.070419 0.049513 -0.017927
v 0.076598 0.041052 0.023254
v 0.114700 0.029163 0.023427
v 0.108583 -0.036379 0.023414
v 0.095134 -0.047785 0.019135
v 0.104437 -0.043169 0.019148
v 0.071929 -0.049387 0.019154
v 0.118636 -0.032525 -0.019687
v 0.102621 -0.044233 -0.016291
v 0.045881 -0.027446 0.023590
v 0.033186 -0.020079 0.007749
v 0.088900 0.049488 0.019046
v 0.087437 0.049890 -0.019622
v 0.071958 0.049494 0.019049
v 0.075081 -0.040662 0.023247
v 0.108821 0.040114 -0.019404
v 0.122966 0.023388 0.019124
v 0.116167 0.024554 -0.023813
v 0.050837 0.032007 -0.023702
v 0.112940 0.030486 -0.023694
v 0.094740 -0.037639 -0.023666
v 0.075080 0.039549 -0.023675
v 0.123303 -0.023181 0.019267
v 0.117621 -0.021085 0.023352
v 0.117294 -0.031462 0.020136
v 0.124615 -0.013758 0.019168
v 0.044904 0.024343 -0.023609
v 0.032196 0.007582 0.019771
v 0.117878 0.020074 0.023502
v 0.090468 -0.049232 0.019094
v 0.073581 -0.039046 -0.023607
v 0.122747 -0.024432 -0.019450
v 0.043048 0.026105 -0.020786
v 0.108352 0.034979 -0.023657
v 0.032458 0.014908 -0.015661
v 0.072051 0.047127 -0.020643
v 0.113041 0.032086 0.023341
v 0.043262 -0.025566 -0.022180
v 0.098081 0.046282 0.012852
v 0.032305 -0.013099 0.016769
v 0.036181 0.000189 0.021502
vn 0.1861 -0.4948 -0.8489
vn -0.6386 0.7695 0.0073
vn 0.4732 0.0070 -0.8809
vn 1.0000 0.0084 -0.0035
vn -0.3255 -0.9453 -0.0207
vn -0.6535 -0.7568 0.0138
vn -1.0000 0.0041 -0.0080
vn -0.4402 -0.0929 -0.8931
vn -0.9996 -0.0215 -0.0166
vn -0.9994 -0.0250 -0.0234
vn -0.9998 0.0173 0.0076
vn -0.6874 0.7138 0.1341
vn -0.6825 0.6738 0.2831
vn 0.6443 0.7625 0.0589
vn -0.4412 0.8973 -0.0143
vn -0.1493 0.3506 0.9246
vn -0.0004 0.0133 0.9999
vn 0.3142 -0.6351 0.7056
vn -0.2391 -0.9710 -0.0024
vn 0.0056 -1.0000 -0.0024
vn 0.5893 -0.8079 -0.0059
vn 0.4445 -0.8958 0.0041
vn -0.6894 -0.6856 0.2337
vn -0.6716 -0.7389 0.0548
vn 0.0004 0.9999 0.0104
vn -0.0220 0.9998 0.0014
vn -0.3250 0.9456 0.0140
vn -0.1344 0.3816 0.9145
vn 0.0003 0.4460 0.8950
vn -0.1449 -0.3442 0.9276
vn -0.0013 -0.0288 0.9996
vn -0.1116 -0.3887 0.9146
vn 0.5884 0.8083 0.0196
vn 0.7968 0.6013 0.0601
vn 0.9568 0.2887 -0.0345
vn 0.9806 0.1955 -0.0111
vn 0.4725 0.0072 -0.8813
vn -0.0016 0.0012 -1.0000
vn 0.6287 0.1812 -0.7562
vn 0.4676 0.2712 -0.8413
vn 0.0015 -0.0029 -1.0000
vn 0.0075 -0.0049 -1.0000
vn -0.0009 0.0066 -1.0000
vn 0.4937 -0.2716 0.8261
vn 0.8108 -0.5838 0.0429
vn 0.4706 -0.2747 0.8385
vn 0.6709 -0.7404 0.0424
vn 0.5606 -0.6581 0.5026
vn 0.5651 -0.0700 0.8220
vn 0.9904 -0.1379 0.0001
vn 1.0000 0.0036 0.0001
vn -0.0190 0.0026 -0.9998
vn -0.2480 -0.0032 -0.9687
vn -0.9968 0.0365 0.0718
vn -0.7183 0.3941 0.5733
vn -0.0008 0.0031 1.0000
vn -0.0003 0.0082 1.0000
vn 0.0132 -0.0037 0.9999
vn 0.0025 -0.0020 1.0000
vn 0.5597 0.2023 0.8036
vn 0.6015 0.1199 0.7898
vn 0.5183 -0.0064 0.8552
vn 0.5525 0.0033 0.8335
vn 0.4283 -0.2425 -0.8705
vn 0.0096 -0.0078 -0.9999
vn 0.0879 -0.3765 -0.9222
vn 0.2963 -0.9550 -0.0127
vn 0.1454 -0.4932 0.8577
vn 0.0084 -1.0000 -0.0012
vn 0.0430 -0.3722 0.9272
vn 0.0065 -0.4266 0.9044
vn 0.0041 -0.3696 -0.9292
vn -0.1425 -0.3410 -0.9292
vn -0.1392 -0.3461 -0.9278
vn -0.0016 -0.0173 -0.9998
vn 0.0205 -0.3481 -0.9372
vn 0.4919 -0.2252 -0.8410
vn 0.8915 -0.4529 0.0018
vn 0.5551 -0.1082 -0.8247
vn 0.9849 -0.1729 -0.0086
vn -0.6986 0.6677 -0.2570
vn -0.6414 0.6303 -0.4375
vn -0.5913 0.4497 -0.6694
vn -0.6674 0.3501 -0.6573
vn 0.3949 0.4100 -0.8221
vn 0.2806 0.5969 -0.7516
vn 0.3892 0.5662 -0.7266
vn 0.0442 0.3183 -0.9470
vn 0.0248 0.0335 -0.9991
vn 0.0029 0.0171 -0.9998
vn -0.9916 0.0932 -0.0892
vn -0.7568 0.5667 -0.3257
vn -0.6873 0.3618 -0.6298
vn -0.2082 0.4661 -0.8599
vn -0.0843 0.7229 -0.6858
vn -0.2355 0.6556 -0.7174
vn -0.0048 0.3698 -0.9291
vn -0.1028 0.3338 -0.9370
vn 0.1837 0.4682 0.8643
vn 0.5517 0.6817 0.4805
vn 0.0828 0.3455 0.9347
vn 0.0056 0.0326 0.9995
vn 0.6461 0.4323 0.6290
vn 0.6197 0.3720 0.6911
vn -0.5558 -0.2257 -0.8001
vn -0.7757 -0.5027 -0.3816
vn -0.6072 -0.6175 -0.5000
vn -0.6961 -0.6648 -0.2711
vn 0.3281 0.9446 -0.0026
vn 0.3595 0.9318 0.0505
vn 0.4158 0.9088 -0.0353
vn 0.4656 0.8849 -0.0142
vn -0.7124 -0.4000 0.5766
vn -0.9910 -0.1292 0.0364
vn -0.7577 -0.5499 0.3515
vn -0.9784 -0.1984 0.0580
vn -0.2774 -0.0248 0.9604
vn -0.2000 0.0038 0.9798
vn -0.3552 0.0273 0.9344
vn -0.3194 0.0494 0.9463
vn 0.3390 -0.9406 -0.0201
vn 0.3559 -0.9343 -0.0185
vn 0.5134 -0.7956 -0.3215
vn 0.4146 -0.6501 -0.6368
usemtl None
s off
f 1//1 2//1 3//1
f 4//2 5//2 6//2
f 7//3 8//3 9//3
f 8//4 10//4 9//4
f 11//5 12//5 13//5
f 12//6 14//6 13//6
f 15//7 4//7 16//7
f 17//8 18//8 16//8
f 14//9 15//9 16//9
f 18//10 14//10 16//10
f 4//11 15//11 19//11
f 5//12 4//12 19//12
f 20//13 5//13 19//13
f 21//14 22//14 23//14
f 6//15 5//15 24//15
f 5//16 20//16 25//16
f 20//17 26//17 25//17
f 27//18 28//18 29//18
f 12//19 11//19 30//19
f 11//20 1//20 30//20
f 31//21 29//21 32//21
f 29//22 28//22 32//22
f 12//23 33//23 34//23
f 14//24 12//24 34//24
f 35//25 36//25 37//25
f 36//26 24//26 37//26
f 24//27 5//27 37//27
f 5//28 25//28 37//28
f 25//29 35//29 37//29
f 33//30 12//30 38//30
f 27//31 33//31 38//31
f 12//32 30//32 38//32
f 23//33 22//33 39//33
f 22//34 21//34 40//34
f 8//35 22//35 40//35
f 10//36 8//36 40//36
f 8//37 7//37 41//37
f 17//38 42//38 41//38
f 22//39 8//39 41//39
f 43//40 22//40 41//40
f 44//41 17//41 41//41
f 7//42 44//42 41//42
f 42//43 45//43 41//43
f 46//44 47//44 48//44
f 31//45 46//45 48//45
f 47//46 27//46 48//46
f 29//47 31//47 48//47
f 27//48 29//48 48//48
f 47//49 46//49 49//49
f 46//50 9//50 49//50
f 9//51 10//51 49//51
f 42//52 17//52 50//52
f 17//53 16//53 50//53
f 19//54 15//54 51//54
f 20//55 19//55 51//55
f 20//56 33//56 52//56
f 26//57 20//57 52//57
f 27//58 47//58 52//58
f 33//59 27//59 52//59
f 40//60 26//60 52//60
f 10//61 40//61 52//61
f 47//62 49//62 52//62
f 49//63 10//63 52//63
f 7//64 31//64 2//64
f 44//65 7//65 2//65
f 1//66 44//66 2//66
f 1//67 28//67 53//67
f 28//68 27//68 53//68
f 30//69 1//69 53//69
f 27//70 38//70 53//70
f 38//71 30//71 53//71
f 1//72 11//72 54//72
f 13//73 17//73 54//73
f 11//74 13//74 54//74
f 17//75 44//75 54//75
f 44//76 1//76 54//76
f 31//77 7//77 55//77
f 46//78 31//78 55//78
f 7//79 9//79 55//79
f 9//80 46//80 55//80
f 4//81 6//81 56//81
f 6//82 42//82 56//82
f 42//83 50//83 56//83
f 50//84 16//84 56//84
f 22//85 43//85 57//85
f 36//86 39//86 57//86
f 39//87 22//87 57//87
f 45//88 36//88 57//88
f 43//89 41//89 57//89
f 41//90 45//90 57//90
f 16//91 4//91 58//91
f 4//92 56//92 58//92
f 56//93 16//93 58//93
f 42//94 6//94 59//94
f 24//95 36//95 59//95
f 6//96 24//96 59//96
f 36//97 45//97 59//97
f 45//98 42//98 59//98
f 23//99 35//99 60//99
f 21//100 23//100 60//100
f 35//101 25//101 60//101
f 25//102 26//102 60//102
f 40//103 21//103 60//103
f 26//104 40//104 60//104
f 18//105 17//105 61//105
f 14//106 18//106 61//106
f 17//107 13//107 61//107
f 13//108 14//108 61//108
f 36//109 35//109 62//109
f 35//110 23//110 62//110
f 39//111 36//111 62//111
f 23//112 39//112 62//112
f 33//113 15//113 63//113
f 15//114 14//114 63//114
f 34//115 33//115 63//115
f 14//116 34//116 63//116
f 15//117 33//117 64//117
f 33//118 20//118 64//118
f 51//119 15//119 64//119
f 20//120 51//120 64//120
f 28//121 1//121 3//121
f 32//122 28//122 3//122
f 31//123 32//123 3//123
f 2//124 31//124 3//124
