# Blender v2.79 (sub 7) OBJ File: ''
# www.blender.org
mtllib head_pan_L.mtl
o convex_0
v -0.014644 -0.141876 0.040944
v -0.058337 -0.119557 0.013655
v -0.021068 -0.156319 0.035089
v -0.106835 0.019276 -0.055936
v -0.070783 0.145777 0.001812
v -0.077530 0.156973 -0.058417
v 0.098964 -0.149511 -0.064207
v -0.065883 -0.145684 -0.064343
v -0.037262 0.152050 -0.064684
v -0.106502 -0.009487 -0.063977
v 0.121449 -0.156511 -0.052915
v 0.125148 -0.096908 -0.059335
v 0.142167 -0.151967 -0.006768
v 0.108571 0.153364 -0.061108
v 0.102928 0.134360 -0.064107
v -0.000192 -0.156873 0.047795
v -0.080593 -0.157748 -0.049158
v 0.122105 -0.157495 0.022643
v 0.028258 0.142829 0.064161
v -0.022505 0.112306 0.037075
v -0.108154 -0.001319 -0.044113
v -0.021312 0.158849 0.009987
v -0.096790 -0.017473 -0.014467
v -0.072283 -0.150817 -0.002291
v 0.090581 -0.153367 0.071518
v 0.044211 -0.147283 0.068923
v 0.127580 -0.149227 0.042756
v 0.125228 0.153234 0.047541
v 0.106486 -0.119766 0.062975
v 0.040590 0.114790 0.069779
v 0.056977 -0.090110 0.074438
v 0.065573 0.092529 0.075122
v 0.137646 0.123848 -0.027596
v 0.133519 0.148965 -0.035957
v 0.036034 -0.082835 0.067980
v -0.002778 -0.082674 0.048462
v 0.141937 0.153201 0.005778
v 0.132864 0.123200 0.034832
v 0.086715 0.151259 0.071742
v 0.098689 0.117714 0.067323
v 0.054525 0.158837 0.047915
v 0.053118 0.148885 0.070702
v 0.101023 0.159028 0.039526
v -0.078564 -0.154440 -0.023182
v -0.049297 -0.028312 0.021277
v -0.065009 0.045453 0.009659
v 0.130311 0.154432 -0.040531
v 0.096861 0.159129 -0.015329
v -0.103575 -0.009590 -0.027367
v 0.069861 -0.099610 0.075433
v -0.106509 0.019228 -0.063981
v 0.096067 -0.156049 0.068488
v 0.058796 0.159071 -0.032206
v 0.134767 -0.157491 -0.019525
v -0.070954 -0.151457 -0.060936
v 0.141138 -0.109214 0.009922
v 0.137138 -0.130148 0.022389
v 0.134110 -0.152389 0.030941
v 0.141947 0.149042 -0.002562
v 0.053771 0.151539 -0.064446
v -0.025596 0.159132 -0.027991
v 0.058763 -0.157434 -0.053260
v -0.097114 0.002785 -0.014525
v -0.010390 0.068339 0.044376
vn -0.5589 -0.0858 0.8248
vn -0.9669 0.2084 0.1471
vn 0.0008 -0.0012 -1.0000
vn -0.0097 -0.0002 -1.0000
vn 0.4146 -0.1229 -0.9017
vn 0.9114 -0.0996 -0.3994
vn 0.4133 0.0209 -0.9103
vn 0.1873 -0.0023 -0.9823
vn -0.0028 -0.9999 0.0113
vn -0.5256 0.1279 0.8410
vn -0.9618 0.1800 0.2062
vn -0.9848 -0.1732 -0.0107
vn -0.2816 0.9372 0.2058
vn -0.6893 -0.0608 0.7219
vn -0.1355 -0.7635 0.6314
vn 0.6875 -0.0061 0.7262
vn -0.2041 0.0059 0.9789
vn 0.9488 -0.0083 -0.3159
vn 0.9072 0.0091 -0.4205
vn -0.2953 -0.0019 0.9554
vn -0.4123 0.0012 0.9111
vn -0.4493 -0.0004 0.8934
vn -0.4222 -0.0403 0.9056
vn -0.3023 -0.0244 0.9529
vn 0.9256 0.0787 0.3703
vn 0.8556 -0.0015 0.5177
vn 0.3556 0.0038 0.9346
vn 0.5277 0.0769 0.8460
vn 0.4741 -0.0006 0.8805
vn 0.5935 0.0048 0.8048
vn -0.0769 0.9154 0.3951
vn -0.2704 0.0734 0.9599
vn -0.3325 0.7559 0.5640
vn -0.2975 0.8143 0.4984
vn -0.1914 0.9038 0.3829
vn -0.0358 0.0703 0.9969
vn -0.1763 0.0382 0.9836
vn 0.1319 0.9487 0.2874
vn 0.2063 0.9751 0.0818
vn 0.0414 0.9670 0.2516
vn -0.9795 -0.1758 0.0989
vn -0.5558 0.0125 0.8312
vn -0.5755 0.0308 0.8172
vn 0.6858 0.0403 -0.7267
vn 0.8319 0.0244 -0.5543
vn 0.0560 0.9923 -0.1106
vn 0.1349 0.9908 -0.0075
vn 0.1329 0.9911 -0.0083
vn -0.9081 -0.1306 0.3978
vn -0.9363 0.1368 0.3236
vn -0.9387 -0.1532 0.3088
vn -0.9693 -0.1620 0.1850
vn 0.1899 0.0017 0.9818
vn -0.0685 -0.0987 0.9928
vn -0.1261 -0.0673 0.9897
vn 0.1448 0.0048 0.9895
vn -0.0771 -0.0001 0.9970
vn -0.9774 0.2073 -0.0408
vn -0.1450 0.0704 -0.9869
vn -0.0099 -0.0001 -1.0000
vn -0.9983 0.0406 -0.0407
vn -0.9966 -0.0003 -0.0828
vn -0.1091 -0.8341 0.5407
vn 0.0016 -0.9995 0.0324
vn 0.4815 -0.0051 0.8764
vn 0.6398 -0.0674 0.7656
vn 0.0167 0.9860 -0.1659
vn 0.0484 0.9925 -0.1126
vn 0.8697 -0.3409 -0.3569
vn 0.0012 -1.0000 0.0003
vn -0.0109 -0.5011 -0.8653
vn -0.4461 -0.1307 -0.8854
vn -0.7069 -0.1916 -0.6809
vn 0.9978 -0.0020 0.0666
vn 0.9517 0.0010 0.3070
vn 0.9540 0.0018 0.2998
vn 0.9430 -0.0004 0.3328
vn 0.8749 -0.0029 0.4843
vn 0.2735 -0.9439 0.1851
vn 0.5436 -0.6857 0.4840
vn 0.4862 -0.8688 0.0942
vn 0.3306 -0.9385 0.0992
vn 0.9672 -0.0349 0.2518
vn 0.9764 -0.0577 0.2080
vn -0.5360 -0.0174 0.8440
vn -0.5105 -0.0069 0.8598
vn -0.4485 -0.0241 0.8934
vn -0.4492 -0.0234 0.8931
vn 1.0000 0.0007 0.0008
vn 0.9850 0.0031 -0.1724
vn 0.9666 0.0776 -0.2441
vn 0.8813 0.4233 -0.2100
vn 0.9111 0.3416 -0.2307
vn 0.0076 0.8195 -0.5730
vn 0.0026 -0.0004 -1.0000
vn 0.0061 0.8049 -0.5933
vn 0.0556 0.1395 -0.9887
vn 0.0070 0.0003 -1.0000
vn -0.0491 0.9987 0.0130
vn -0.0038 1.0000 0.0079
vn -0.0029 1.0000 0.0069
vn -0.0002 1.0000 0.0019
vn -0.0026 0.9978 -0.0664
vn 0.0005 1.0000 -0.0046
vn 0.0153 -0.8359 -0.5487
vn 0.0149 -0.9993 -0.0353
vn 0.0021 -1.0000 -0.0063
vn -0.0022 -0.8063 -0.5915
vn -0.0121 -0.8778 -0.4788
vn -0.6030 -0.0074 0.7977
vn -0.6023 -0.0070 0.7983
vn -0.6227 0.0253 0.7820
vn -0.6001 -0.0018 0.7999
vn -0.9308 0.1325 0.3406
vn -0.8882 -0.0129 0.4593
vn -0.5128 0.0013 0.8585
vn -0.4774 0.0143 0.8786
vn -0.5065 -0.0022 0.8623
vn -0.4572 0.0010 0.8893
vn -0.0644 -0.9960 0.0624
vn -0.5935 -0.1395 0.7926
vn -0.2784 -0.9287 0.2448
vn -0.1714 -0.9756 0.1376
vn -0.5188 -0.1128 0.8474
usemtl None
s off
f 1//1 2//1 3//1
f 4//2 5//2 6//2
f 7//3 8//3 9//3
f 9//4 8//4 10//4
f 11//5 7//5 12//5
f 13//6 11//6 12//6
f 14//7 12//7 15//7
f 12//8 7//8 15//8
f 16//9 17//9 18//9
f 19//10 5//10 20//10
f 5//11 4//11 21//11
f 10//12 17//12 21//12
f 6//13 5//13 22//13
f 23//14 24//14 2//14
f 16//15 25//15 26//15
f 27//16 28//16 29//16
f 30//17 31//17 32//17
f 13//18 12//18 33//18
f 12//19 34//19 33//19
f 31//20 30//20 35//20
f 30//21 19//21 35//21
f 19//22 36//22 35//22
f 16//23 26//23 35//23
f 26//24 31//24 35//24
f 37//25 28//25 38//25
f 28//26 27//26 38//26
f 39//27 25//27 40//27
f 28//28 39//28 40//28
f 25//29 29//29 40//29
f 29//30 28//30 40//30
f 39//31 41//31 42//31
f 19//32 30//32 42//32
f 5//33 19//33 42//33
f 22//34 5//34 42//34
f 41//35 22//35 42//35
f 32//36 39//36 42//36
f 30//37 32//37 42//37
f 39//38 28//38 43//38
f 28//39 37//39 43//39
f 41//40 39//40 43//40
f 21//41 17//41 44//41
f 45//42 20//42 46//42
f 20//43 5//43 46//43
f 12//44 14//44 47//44
f 34//45 12//45 47//45
f 14//46 48//46 47//46
f 43//47 37//47 47//47
f 48//48 43//48 47//48
f 24//49 23//49 49//49
f 5//50 21//50 49//50
f 44//51 24//51 49//51
f 21//52 44//52 49//52
f 25//53 39//53 50//53
f 26//54 25//54 50//54
f 31//55 26//55 50//55
f 39//56 32//56 50//56
f 32//57 31//57 50//57
f 4//58 6//58 51//58
f 6//59 9//59 51//59
f 9//60 10//60 51//60
f 21//61 4//61 51//61
f 10//62 21//62 51//62
f 25//63 16//63 52//63
f 16//64 18//64 52//64
f 29//65 25//65 52//65
f 27//66 29//66 52//66
f 14//67 6//67 53//67
f 48//68 14//68 53//68
f 11//69 13//69 54//69
f 18//70 17//70 54//70
f 8//71 7//71 55//71
f 10//72 8//72 55//72
f 17//73 10//73 55//73
f 13//74 37//74 56//74
f 38//75 57//75 56//75
f 37//76 38//76 56//76
f 57//77 38//77 58//77
f 38//78 27//78 58//78
f 52//79 18//79 58//79
f 27//80 52//80 58//80
f 54//81 13//81 58//81
f 18//82 54//82 58//82
f 56//83 57//83 58//83
f 13//84 56//84 58//84
f 45//85 2//85 1//85
f 36//86 45//86 1//86
f 16//87 35//87 1//87
f 35//88 36//88 1//88
f 37//89 13//89 59//89
f 13//90 33//90 59//90
f 33//91 34//91 59//91
f 47//92 37//92 59//92
f 34//93 47//93 59//93
f 6//94 14//94 60//94
f 7//95 9//95 60//95
f 9//96 6//96 60//96
f 14//97 15//97 60//97
f 15//98 7//98 60//98
f 6//99 22//99 61//99
f 22//100 41//100 61//100
f 41//101 43//101 61//101
f 43//102 48//102 61//102
f 53//103 6//103 61//103
f 48//104 53//104 61//104
f 7//105 11//105 62//105
f 11//106 54//106 62//106
f 54//107 17//107 62//107
f 55//108 7//108 62//108
f 17//109 55//109 62//109
f 23//110 2//110 63//110
f 2//111 45//111 63//111
f 46//112 5//112 63//112
f 45//113 46//113 63//113
f 5//114 49//114 63//114
f 49//115 23//115 63//115
f 20//116 45//116 64//116
f 19//117 20//117 64//117
f 45//118 36//118 64//118
f 36//119 19//119 64//119
f 17//120 16//120 3//120
f 2//121 24//121 3//121
f 24//122 44//122 3//122
f 44//123 17//123 3//123
f 16//124 1//124 3//124
