# Blender v2.79 (sub 7) OBJ File: ''
# www.blender.org
mtllib l_finger.mtl
o convex_1
v 0.062374 0.035968 0.015975
v 0.059973 0.037136 -0.014812
v 0.058816 0.037156 0.015978
v -0.008248 -0.002359 -0.027232
v 0.046072 0.003756 -0.027108
v -0.003211 -0.008236 -0.027052
v -0.005541 0.022991 -0.026994
v 0.062660 0.006252 0.017307
v 0.048119 -0.003092 0.018318
v 0.048100 -0.004361 -0.018191
v 0.050605 0.003160 0.028191
v -0.008170 -0.002314 0.027139
v -0.000928 -0.008347 0.027132
v -0.008028 0.002573 0.027030
v -0.005648 0.023006 0.027049
v 0.062465 0.006318 -0.017245
v -0.007982 0.015799 -0.025824
v 0.046848 0.040763 0.020664
v 0.046848 0.040763 -0.020698
v 0.020918 0.044234 -0.019539
v -0.001745 0.030104 0.026769
v 0.044581 0.021748 0.026626
v -0.008035 0.015795 0.025828
v 0.006376 0.044662 -0.021063
v 0.008882 0.044516 0.020913
v 0.019696 0.044368 0.019606
v 0.062808 0.036188 -0.016207
v 0.063422 0.027959 -0.016488
v -0.004764 -0.007310 0.026098
v 0.062793 0.027788 0.017365
v -0.002106 0.031455 -0.025923
v 0.003134 0.033600 -0.025487
v 0.001841 0.038427 0.023188
v -0.002129 0.032671 0.024704
v -0.005414 0.025359 0.024463
v -0.005384 0.025353 -0.024475
v 0.056874 0.003160 -0.021952
v 0.059379 0.004413 0.021918
v 0.005212 0.043413 0.020994
v 0.012569 0.043146 0.021960
v -0.008112 -0.003484 -0.017484
v 0.062596 0.008658 -0.018502
v 0.045825 0.020568 -0.026749
v 0.051829 0.037247 -0.020852
v 0.050668 0.037276 0.020850
v 0.013824 0.027659 -0.026631
v 0.044706 0.002694 -0.026855
v 0.003129 0.030050 0.026648
v 0.001838 0.038429 -0.000609
v 0.047061 0.018198 -0.026808
v 0.054181 0.011059 -0.024406
v 0.018545 0.041885 -0.021925
v -0.007112 -0.004830 0.026038
v -0.002974 0.027734 -0.026843
v 0.003935 0.039877 0.023465
v 0.057973 0.007415 -0.022185
v 0.045790 0.020563 0.026664
v 0.022123 -0.003005 -0.026529
v -0.006791 0.020593 0.025796
v 0.054155 0.006315 -0.024382
v -0.006882 -0.004676 -0.027108
v -0.003139 -0.008175 0.004176
v 0.017348 0.044276 -0.020756
v -0.006745 0.020590 -0.025795
vn 0.3167 0.9485 0.0113
vn 0.0052 -0.0261 -0.9996
vn 0.0012 0.0093 -1.0000
vn 0.5418 -0.8400 0.0289
vn -0.0160 -0.0204 0.9997
vn 0.1799 -0.8509 0.4935
vn 0.1126 -0.9930 0.0345
vn 0.0762 -0.9971 -0.0053
vn -0.2567 0.0290 0.9660
vn -0.0184 0.0054 0.9998
vn 0.5968 -0.8024 -0.0049
vn -0.5932 0.0709 -0.8019
vn 0.1327 0.9912 0.0000
vn -0.0053 0.0423 0.9991
vn 0.0193 0.0901 0.9957
vn -0.9177 0.0355 0.3958
vn -1.0000 0.0076 0.0014
vn -0.6159 0.0710 0.7846
vn -0.9999 0.0147 -0.0010
vn 0.0140 0.9999 0.0026
vn 0.0829 0.7991 0.5954
vn 0.0297 0.9996 -0.0025
vn 0.1316 0.9913 0.0007
vn 0.9972 0.0739 0.0140
vn -0.3388 -0.4076 0.8480
vn 0.4361 0.1724 0.8832
vn 0.9998 -0.0062 0.0185
vn 0.9983 0.0543 0.0188
vn -0.0838 0.3911 -0.9165
vn -0.4656 0.5114 0.7223
vn -0.6774 0.3969 0.6194
vn -0.8810 0.3868 0.2723
vn -0.9122 0.4098 -0.0006
vn -0.8657 0.3909 -0.3126
vn -0.8820 0.4710 -0.0117
vn 0.5944 -0.7837 -0.1803
vn 0.4106 -0.8135 0.4118
vn 0.5424 -0.8385 0.0515
vn 0.5728 0.0753 0.8162
vn 0.8160 -0.0066 0.5780
vn -0.2874 0.9576 0.0205
vn -0.8138 0.5778 0.0628
vn 0.0763 0.7270 0.6824
vn -0.9943 -0.1071 0.0015
vn 0.9982 -0.0590 -0.0057
vn 0.9991 -0.0423 -0.0046
vn 0.7115 -0.3630 -0.6016
vn 0.1651 0.2754 -0.9470
vn 0.3689 0.5553 -0.7454
vn 0.3843 0.4636 0.7984
vn 0.2016 0.2711 0.9412
vn 0.0593 0.2838 -0.9571
vn 0.0576 0.2877 -0.9560
vn 0.0780 -0.3248 -0.9426
vn 0.3212 -0.5897 -0.7410
vn 0.2961 -0.6806 -0.6702
vn 0.0590 0.2922 0.9545
vn 0.0260 0.1273 0.9915
vn 0.0569 0.2999 0.9523
vn -0.8379 0.5454 -0.0197
vn -0.8493 0.5277 -0.0131
vn -0.8169 0.5768 -0.0055
vn -0.8258 0.5640 -0.0011
vn 0.0054 0.0204 -0.9998
vn 0.0061 0.0281 -0.9996
vn 0.3178 -0.0021 -0.9482
vn 0.4388 0.1390 -0.8877
vn 0.3422 0.2013 -0.9178
vn 0.3980 0.1816 -0.8993
vn 0.0178 0.3668 -0.9301
vn 0.0534 0.3089 -0.9496
vn -0.5640 -0.5184 0.6427
vn -0.9204 -0.3910 0.0091
vn -0.7261 -0.6876 -0.0046
vn 0.2664 0.9639 0.0000
vn 0.2904 0.9551 -0.0590
vn 0.3219 0.9467 0.0108
vn 0.0061 0.0285 -0.9996
vn -0.5433 0.3188 -0.7767
vn -0.0193 0.2442 -0.9695
vn 0.0129 0.0749 -0.9971
vn 0.0133 0.2121 -0.9772
vn -0.4498 0.5094 0.7336
vn -0.1644 0.6042 0.7797
vn -0.5032 0.6097 0.6124
vn -0.0486 0.5207 0.8524
vn 0.0270 0.3060 0.9516
vn 0.0507 0.3040 0.9513
vn 0.5584 0.0777 -0.8259
vn 0.5804 0.0710 -0.8112
vn 0.6129 0.0560 -0.7882
vn 0.6430 -0.2065 -0.7375
vn 0.4014 0.1897 0.8961
vn 0.0742 0.1075 0.9914
vn 0.3956 0.1966 0.8971
vn 0.2259 0.2606 0.9386
vn 0.1675 -0.7470 -0.6434
vn 0.1404 -0.6014 -0.7865
vn 0.1744 -0.7290 -0.6619
vn -0.8999 0.2358 0.3669
vn -0.9212 0.3257 0.2130
vn -0.9608 0.2774 -0.0006
vn 0.3214 -0.0066 -0.9469
vn 0.3929 -0.3242 -0.8605
vn 0.5003 -0.0071 -0.8658
vn 0.5293 -0.1821 -0.8287
vn -0.0848 -0.1030 -0.9911
vn -0.6961 -0.7179 -0.0078
vn -0.8594 -0.5092 -0.0468
vn -0.7189 -0.6951 -0.0058
vn -0.1000 -0.9950 0.0022
vn -0.4405 -0.8977 0.0028
vn -0.2655 -0.9639 0.0184
vn 0.0371 0.9965 -0.0746
vn 0.1134 0.9472 -0.2999
vn 0.0409 0.4553 -0.8894
vn 0.0567 0.4613 -0.8854
vn -0.8771 0.2290 -0.4222
vn -0.9682 0.2500 -0.0010
vn -0.9096 0.3299 -0.2527
vn -0.9680 0.2510 -0.0009
vn -0.9615 0.2750 -0.0009
vn 0.3158 0.9456 0.0787
vn 0.2923 0.9563 0.0104
usemtl None
s off
f 1//1 2//1 3//1
f 4//2 5//2 6//2
f 5//3 4//3 7//3
f 8//4 9//4 10//4
f 11//5 12//5 13//5
f 9//6 11//6 13//6
f 10//7 9//7 13//7
f 6//8 10//8 13//8
f 14//9 12//9 15//9
f 12//10 11//10 15//10
f 8//11 10//11 16//11
f 7//12 4//12 17//12
f 18//13 19//13 20//13
f 15//14 11//14 21//14
f 11//15 22//15 21//15
f 12//16 14//16 23//16
f 4//17 12//17 23//17
f 14//18 15//18 23//18
f 17//19 4//19 23//19
f 24//20 25//20 26//20
f 25//21 18//21 26//21
f 20//22 24//22 26//22
f 18//23 20//23 26//23
f 27//24 1//24 28//24
f 13//25 12//25 29//25
f 1//26 11//26 30//26
f 8//27 28//27 30//27
f 28//28 1//28 30//28
f 31//29 24//29 32//29
f 21//30 33//30 34//30
f 15//31 21//31 34//31
f 35//32 15//32 34//32
f 35//33 34//33 36//33
f 31//34 7//34 36//34
f 34//35 31//35 36//35
f 16//36 10//36 37//36
f 11//37 9//37 38//37
f 9//38 8//38 38//38
f 30//39 11//39 38//39
f 8//40 30//40 38//40
f 25//41 24//41 39//41
f 34//42 33//42 39//42
f 18//43 25//43 40//43
f 12//44 4//44 41//44
f 8//45 16//45 42//45
f 28//46 8//46 42//46
f 16//47 37//47 42//47
f 43//48 19//48 44//48
f 19//49 27//49 44//49
f 1//50 18//50 45//50
f 18//51 22//51 45//51
f 19//52 43//52 46//52
f 32//53 19//53 46//53
f 6//54 5//54 47//54
f 5//55 37//55 47//55
f 37//56 10//56 47//56
f 22//57 18//57 48//57
f 21//58 22//58 48//58
f 18//59 40//59 48//59
f 24//60 31//60 49//60
f 31//61 34//61 49//61
f 39//62 24//62 49//62
f 34//63 39//63 49//63
f 5//64 7//64 50//64
f 7//65 43//65 50//65
f 51//66 5//66 50//66
f 27//67 51//67 50//67
f 43//68 44//68 50//68
f 44//69 27//69 50//69
f 32//70 24//70 52//70
f 19//71 32//71 52//71
f 29//72 12//72 53//72
f 12//73 41//73 53//73
f 41//74 29//74 53//74
f 19//75 18//75 2//75
f 27//76 19//76 2//76
f 1//77 27//77 2//77
f 43//78 7//78 54//78
f 7//79 31//79 54//79
f 31//80 32//80 54//80
f 46//81 43//81 54//81
f 32//82 46//82 54//82
f 33//83 21//83 55//83
f 25//84 39//84 55//84
f 39//85 33//85 55//85
f 40//86 25//86 55//86
f 21//87 48//87 55//87
f 48//88 40//88 55//88
f 51//89 27//89 56//89
f 27//90 28//90 56//90
f 28//91 42//91 56//91
f 42//92 37//92 56//92
f 11//93 1//93 57//93
f 22//94 11//94 57//94
f 1//95 45//95 57//95
f 45//96 22//96 57//96
f 10//97 6//97 58//97
f 6//98 47//98 58//98
f 47//99 10//99 58//99
f 23//100 15//100 59//100
f 15//101 35//101 59//101
f 35//102 36//102 59//102
f 5//103 51//103 60//103
f 37//104 5//104 60//104
f 51//105 56//105 60//105
f 56//106 37//106 60//106
f 4//107 6//107 61//107
f 6//108 29//108 61//108
f 41//109 4//109 61//109
f 29//110 41//110 61//110
f 6//111 13//111 62//111
f 29//112 6//112 62//112
f 13//113 29//113 62//113
f 24//114 20//114 63//114
f 20//115 19//115 63//115
f 52//116 24//116 63//116
f 19//117 52//117 63//117
f 7//118 17//118 64//118
f 17//119 23//119 64//119
f 36//120 7//120 64//120
f 23//121 59//121 64//121
f 59//122 36//122 64//122
f 18//123 1//123 3//123
f 2//124 18//124 3//124
o convex_0
v 0.095746 0.006918 -0.006911
v 0.083924 0.026762 -0.011643
v 0.095746 0.008174 0.006878
v 0.064404 0.033237 0.016908
v 0.064404 0.006918 -0.018195
v 0.064404 0.005663 0.016908
v 0.095746 0.005663 -0.013179
v 0.066913 0.037004 -0.015687
v 0.065658 0.006918 -0.018195
v 0.077203 -0.002667 -0.010997
v 0.076945 -0.004368 0.011891
v 0.066635 0.000545 -0.011160
v 0.064404 0.029475 -0.016941
v 0.066544 0.000437 0.011121
v 0.081735 0.029087 -0.011746
v 0.081730 0.029051 0.011535
v 0.077249 0.032730 0.010675
v 0.065168 0.035995 -0.014954
v 0.065305 0.035814 0.014716
v 0.065658 0.033237 0.016908
v 0.095746 0.008174 0.011891
v 0.094491 0.010681 0.011891
v 0.065658 0.005663 0.016908
v 0.092337 0.001724 0.012203
v 0.084857 0.025354 0.011051
v 0.065658 0.011932 -0.018195
v 0.093283 0.001966 0.008542
v 0.092301 0.001767 -0.011123
v 0.065658 0.029475 -0.016941
v 0.073793 0.034031 0.011927
v 0.064404 0.005663 -0.016941
v 0.080628 -0.001970 -0.010617
v 0.077320 0.032315 0.000457
v 0.094749 0.005169 0.011094
v 0.081768 -0.000098 -0.011965
v 0.065807 0.002056 -0.010914
v 0.077230 0.030560 0.013031
vn 0.8630 0.5032 -0.0458
vn -1.0000 0.0000 0.0000
vn 0.3760 0.2751 -0.8849
vn 0.0000 -0.6005 -0.7996
vn -0.2890 -0.9545 -0.0742
vn -0.3866 -0.7510 0.5353
vn -0.4190 -0.9080 -0.0061
vn 0.4105 0.3491 -0.8424
vn 0.7281 0.6855 0.0012
vn 0.6344 0.7730 0.0013
vn -0.5132 0.3047 -0.8024
vn -0.9926 0.1204 -0.0134
vn -0.9422 0.3349 0.0064
vn -0.4982 0.8671 0.0076
vn 0.0000 0.0000 1.0000
vn 0.0000 0.6479 0.7617
vn 0.2724 0.1364 0.9525
vn 0.0000 -0.4473 0.8944
vn 0.1677 -0.0410 0.9850
vn 0.1148 -0.3380 0.9341
vn 0.1645 0.0000 0.9864
vn 0.7640 0.6451 0.0086
vn 0.8359 0.5488 -0.0003
vn 0.6298 0.4497 0.6334
vn 0.0000 0.0000 -1.0000
vn 0.1644 0.0000 -0.9864
vn -0.2167 0.0542 -0.9747
vn 0.3672 -0.9295 0.0334
vn 0.3599 -0.9329 -0.0085
vn 0.7408 -0.6710 -0.0302
vn 0.2196 0.1246 -0.9676
vn 0.0000 0.1643 -0.9864
vn 0.1782 0.0702 -0.9815
vn 0.0000 0.0713 -0.9975
vn 1.0000 0.0000 0.0000
vn 0.8651 0.4919 -0.0985
vn 0.3561 0.9344 0.0119
vn 0.4616 0.6920 0.5551
vn 0.2210 0.9740 0.0498
vn 0.3584 0.6329 0.6863
vn -0.1304 -0.7008 -0.7013
vn -0.2251 -0.7710 -0.5957
vn 0.2064 -0.9759 -0.0702
vn 0.3024 -0.9518 -0.0519
vn 0.2234 -0.7776 -0.5878
vn 0.4527 0.8910 -0.0330
vn 0.4821 0.8743 -0.0568
vn 0.5334 0.8453 -0.0306
vn 0.9460 -0.3224 0.0323
vn 0.7804 -0.3888 0.4896
vn 0.9002 -0.4345 0.0281
vn 0.8321 -0.5245 0.1803
vn 0.1242 -0.4839 -0.8662
vn 0.1070 -0.5114 -0.8526
vn 0.1682 -0.5950 -0.7859
vn 0.1653 -0.5707 -0.8044
vn -0.9243 -0.3817 0.0029
vn -0.8774 -0.4798 -0.0059
vn -0.9320 -0.3625 0.0000
vn -0.8796 -0.4696 -0.0763
vn 0.3873 0.2860 0.8765
vn 0.3605 0.2617 0.8953
vn 0.4269 0.6293 0.6494
vn 0.3756 0.5973 0.7086
vn 0.8942 0.4476 0.0000
vn 0.8603 0.5084 -0.0389
usemtl None
s off
f 65//125 66//125 67//125
f 68//126 69//126 70//126
f 71//127 72//127 66//127
f 69//128 73//128 74//128
f 74//129 75//129 76//129
f 69//126 68//126 77//126
f 75//130 70//130 78//130
f 76//131 75//131 78//131
f 66//132 72//132 79//132
f 80//133 66//133 79//133
f 81//134 80//134 79//134
f 72//135 77//135 82//135
f 77//136 68//136 82//136
f 68//137 83//137 82//137
f 83//138 72//138 82//138
f 68//139 70//139 84//139
f 83//140 68//140 84//140
f 85//141 86//141 84//141
f 70//142 75//142 87//142
f 88//143 85//143 87//143
f 75//144 88//144 87//144
f 85//145 84//145 87//145
f 84//139 70//139 87//139
f 66//146 80//146 89//146
f 86//147 66//147 89//147
f 80//148 86//148 89//148
f 73//149 69//149 90//149
f 71//150 73//150 90//150
f 69//151 77//151 90//151
f 88//152 75//152 91//152
f 75//153 92//153 91//153
f 92//154 71//154 91//154
f 72//155 71//155 93//155
f 77//156 72//156 93//156
f 71//157 90//157 93//157
f 90//158 77//158 93//158
f 85//159 71//159 65//159
f 71//160 66//160 65//160
f 81//161 72//161 94//161
f 80//162 81//162 94//162
f 72//163 83//163 94//163
f 83//164 84//164 94//164
f 70//126 69//126 95//126
f 69//165 74//165 95//165
f 74//166 76//166 95//166
f 75//167 74//167 96//167
f 92//168 75//168 96//168
f 74//169 92//169 96//169
f 72//170 81//170 97//170
f 79//171 72//171 97//171
f 81//172 79//172 97//172
f 71//173 85//173 98//173
f 85//174 88//174 98//174
f 91//175 71//175 98//175
f 88//176 91//176 98//176
f 73//177 71//177 99//177
f 74//178 73//178 99//178
f 92//179 74//179 99//179
f 71//180 92//180 99//180
f 78//181 70//181 100//181
f 76//182 78//182 100//182
f 70//183 95//183 100//183
f 95//184 76//184 100//184
f 86//185 80//185 101//185
f 84//186 86//186 101//186
f 80//187 94//187 101//187
f 94//188 84//188 101//188
f 86//189 85//189 67//189
f 66//190 86//190 67//190
f 85//159 65//159 67//159
