# Blender v2.79 (sub 7) OBJ File: ''
# www.blender.org
mtllib l_finger_tip.mtl
o convex_1
v 0.008311 0.010980 -0.007858
v -0.013354 0.027954 -0.007556
v -0.010495 0.025930 0.002604
v -0.006329 0.005185 0.008710
v -0.022701 0.014417 -0.005992
v -0.005804 0.005392 -0.008527
v 0.010706 0.003874 -0.009076
v 0.011309 0.003874 0.009101
v -0.017774 0.028112 0.009101
v -0.023549 0.023500 0.006339
v -0.025071 0.020580 0.006269
v -0.023314 0.014902 0.006250
v -0.014642 0.013270 0.008901
v 0.012524 0.004482 -0.008470
v 0.010098 0.009330 -0.008470
v 0.012524 0.004482 0.008496
v 0.007995 0.011097 0.007720
v -0.012276 0.027417 0.007584
v -0.014280 0.028575 -0.007970
v -0.015956 0.027506 0.009709
v -0.016563 0.025082 0.009709
v -0.022622 0.025688 -0.007259
v -0.016563 0.026901 -0.009683
v -0.017167 0.025688 -0.009683
v -0.022499 0.025284 0.006381
v -0.014353 0.028693 -0.003442
v -0.015956 0.028717 0.008494
v -0.018948 0.027529 -0.007464
v -0.025427 0.020658 0.001172
v -0.025090 0.018306 -0.006250
v -0.025359 0.018331 0.002324
v -0.023949 0.015464 -0.006250
v -0.014659 0.013262 -0.008895
v 0.007772 0.010407 0.008458
v 0.009360 0.009646 0.007547
v 0.005625 0.004669 0.009102
v -0.025106 0.020016 -0.006255
v -0.015956 0.028112 -0.009076
v -0.024446 0.017164 0.006250
v -0.014950 0.028727 -0.007492
v 0.007330 0.004668 -0.009078
v 0.010706 0.005087 -0.009076
v -0.024193 0.015448 -0.000564
v -0.008526 0.023796 0.008318
v 0.011309 0.004482 0.009101
v -0.020077 0.026938 0.007478
v -0.020199 0.027033 -0.007521
v -0.024841 0.021815 0.001751
v -0.022601 0.014431 0.003809
v -0.025013 0.018865 0.006249
v 0.000452 0.015477 -0.008996
v -0.012307 0.026935 -0.008147
vn 0.6165 0.7872 -0.0167
vn -0.4739 -0.8802 -0.0250
vn -0.0920 -0.9956 -0.0148
vn -0.0742 -0.9972 0.0025
vn -0.5916 0.2903 0.7522
vn -0.3343 -0.3642 0.8692
vn 0.3203 -0.9472 -0.0106
vn 0.8943 0.4475 0.0000
vn 0.4475 -0.8943 0.0000
vn 0.6799 0.7333 0.0083
vn 0.6271 0.7789 0.0069
vn 0.5849 0.7489 -0.3115
vn 0.0183 -0.0046 0.9998
vn -0.2941 0.0737 0.9529
vn -0.3881 0.0297 0.9211
vn -0.0515 -0.0765 0.9957
vn -0.3980 0.1982 -0.8957
vn 0.0157 -0.0078 -0.9998
vn -0.6148 0.3452 0.7091
vn 0.3424 0.9385 0.0441
vn 0.3910 0.6519 0.6498
vn 0.0000 0.7083 0.7059
vn -0.3190 0.9477 -0.0107
vn -0.9985 -0.0446 -0.0312
vn -0.9975 0.0054 0.0698
vn -0.4497 -0.6790 -0.5802
vn -0.3393 -0.4211 -0.8412
vn -0.2986 -0.1199 -0.9468
vn -0.2981 -0.1202 -0.9469
vn 0.5983 0.4839 0.6386
vn 0.7294 0.6838 0.0201
vn 0.8500 0.5261 0.0288
vn 0.5984 0.4871 0.6362
vn -0.0449 -0.3224 0.9455
vn -0.0356 -0.0684 0.9970
vn -0.0047 -0.0348 0.9994
vn -0.4060 0.0161 -0.9137
vn -0.3926 -0.0064 -0.9197
vn -0.9182 0.3892 -0.0733
vn -0.9991 -0.0095 -0.0424
vn 0.5651 0.8250 -0.0110
vn 0.5608 0.8279 -0.0125
vn 0.6039 0.7742 -0.1895
vn -0.4016 0.5633 -0.7221
vn -0.3157 -0.1580 0.9356
vn -0.3012 -0.1137 0.9468
vn 0.2061 0.9783 -0.0222
vn 0.0369 0.9993 0.0029
vn -0.2871 0.9577 -0.0175
vn -0.0324 0.9385 -0.3438
vn -0.2833 0.9409 -0.1854
vn -0.0534 -0.2296 -0.9718
vn -0.0472 -0.0996 -0.9939
vn -0.0085 -0.0387 -0.9992
vn -0.0358 -0.0704 -0.9969
vn 0.0223 0.0000 -0.9998
vn 0.3651 0.1827 -0.9129
vn 0.3162 0.0000 -0.9487
vn -0.5559 -0.8313 0.0051
vn -0.9362 -0.3502 -0.0284
vn -0.6388 -0.7688 -0.0296
vn -0.9272 -0.3723 -0.0408
vn -0.8915 -0.4461 0.0792
vn -0.8949 -0.4395 0.0775
vn 0.4191 0.5763 0.7016
vn 0.5204 0.6509 0.5527
vn 0.3867 0.4789 0.7881
vn 0.4645 0.5725 0.6756
vn 0.0223 0.0000 0.9998
vn 0.4457 0.0000 0.8952
vn 0.2178 0.2329 0.9478
vn 0.4190 0.3414 0.8414
vn -0.6338 0.6374 0.4383
vn -0.5728 0.8192 0.0294
vn -0.3683 0.9297 -0.0066
vn -0.4056 0.5956 -0.6934
vn -0.3387 0.8894 -0.3069
vn -0.4845 0.8747 0.0095
vn -0.4594 0.8882 0.0094
vn -0.8847 0.4592 0.0805
vn -0.8877 0.4600 -0.0209
vn -0.9035 0.4228 0.0696
vn -0.8610 0.5054 0.0568
vn -0.8429 0.5376 0.0235
vn -0.4955 -0.8686 0.0063
vn -0.5352 -0.8447 0.0067
vn -0.4988 -0.8664 0.0215
vn -0.3642 -0.0232 0.9310
vn -0.9951 -0.0347 0.0924
vn -0.3110 -0.1031 0.9448
vn -0.9412 -0.3137 0.1256
vn 0.2565 0.3273 -0.9094
vn 0.2645 0.3378 -0.9033
vn 0.1325 0.1383 -0.9815
vn 0.1561 0.1615 -0.9744
vn 0.5539 0.7128 -0.4303
vn 0.3570 0.4691 -0.8078
vn 0.3647 0.5219 -0.7711
vn 0.6174 0.7865 -0.0140
vn 0.6145 0.7888 -0.0158
usemtl None
s off
f 1//1 2//1 3//1
f 4//2 5//2 6//2
f 4//3 6//3 7//3
f 8//4 4//4 7//4
f 9//5 10//5 11//5
f 12//6 4//6 13//6
f 8//7 7//7 14//7
f 15//8 16//8 14//8
f 16//9 8//9 14//9
f 17//10 15//10 1//10
f 18//11 17//11 1//11
f 15//12 19//12 1//12
f 8//13 20//13 21//13
f 20//14 9//14 21//14
f 9//15 11//15 21//15
f 13//16 4//16 21//16
f 22//17 23//17 24//17
f 23//18 7//18 24//18
f 10//19 9//19 25//19
f 18//20 26//20 27//20
f 20//21 18//21 27//21
f 9//22 20//22 27//22
f 28//23 9//23 27//23
f 29//24 30//24 31//24
f 11//25 29//25 31//25
f 6//26 5//26 32//26
f 33//27 6//27 32//27
f 30//28 24//28 32//28
f 24//29 33//29 32//29
f 34//30 16//30 35//30
f 15//31 17//31 35//31
f 16//32 15//32 35//32
f 17//33 34//33 35//33
f 4//34 8//34 36//34
f 21//35 4//35 36//35
f 8//36 21//36 36//36
f 22//37 24//37 37//37
f 24//38 30//38 37//38
f 29//39 22//39 37//39
f 30//40 29//40 37//40
f 26//41 18//41 2//41
f 19//42 26//42 2//42
f 1//43 19//43 2//43
f 23//44 22//44 38//44
f 12//45 13//45 39//45
f 13//46 21//46 39//46
f 26//47 19//47 40//47
f 27//48 26//48 40//48
f 28//49 27//49 40//49
f 19//50 38//50 40//50
f 38//51 28//51 40//51
f 7//52 6//52 41//52
f 6//53 33//53 41//53
f 24//54 7//54 41//54
f 33//55 24//55 41//55
f 7//56 23//56 42//56
f 15//57 14//57 42//57
f 14//58 7//58 42//58
f 5//59 12//59 43//59
f 31//60 30//60 43//60
f 32//61 5//61 43//61
f 30//62 32//62 43//62
f 12//63 39//63 43//63
f 39//64 31//64 43//64
f 18//65 20//65 44//65
f 17//66 18//66 44//66
f 20//67 34//67 44//67
f 34//68 17//68 44//68
f 20//69 8//69 45//69
f 8//70 16//70 45//70
f 34//71 20//71 45//71
f 16//72 34//72 45//72
f 25//73 9//73 46//73
f 22//74 25//74 46//74
f 9//75 28//75 47//75
f 38//76 22//76 47//76
f 28//77 38//77 47//77
f 22//78 46//78 47//78
f 46//79 9//79 47//79
f 11//80 10//80 48//80
f 22//81 29//81 48//81
f 29//82 11//82 48//82
f 10//83 25//83 48//83
f 25//84 22//84 48//84
f 5//85 4//85 49//85
f 12//86 5//86 49//86
f 4//87 12//87 49//87
f 21//88 11//88 50//88
f 11//89 31//89 50//89
f 39//90 21//90 50//90
f 31//91 39//91 50//91
f 23//92 38//92 51//92
f 38//93 15//93 51//93
f 42//94 23//94 51//94
f 15//95 42//95 51//95
f 19//96 15//96 52//96
f 15//97 38//97 52//97
f 38//98 19//98 52//98
f 18//99 1//99 3//99
f 2//100 18//100 3//100
o convex_0
v 0.024627 -0.015626 -0.009775
v -0.003835 -0.015515 -0.010288
v 0.024591 -0.015020 -0.010319
v -0.004571 0.003289 -0.009115
v -0.004584 0.003296 0.009148
v 0.013675 0.003247 0.007963
v 0.009704 0.003245 -0.009073
v -0.001864 -0.006956 0.010549
v 0.026458 -0.006429 0.010920
v -0.003835 -0.015515 0.010314
v -0.004440 -0.014305 -0.010288
v -0.002493 -0.011617 -0.010974
v 0.024580 -0.008132 -0.010884
v 0.028274 -0.007033 -0.010288
v 0.025343 -0.013985 -0.011049
v 0.029490 -0.005824 0.008495
v 0.023973 -0.001268 0.008015
v 0.030698 -0.005824 0.006072
v 0.023930 -0.001287 -0.007959
v 0.030687 -0.007003 -0.004670
v 0.031310 -0.014910 -0.006046
v 0.029490 -0.016124 -0.007259
v 0.030094 -0.014910 -0.007863
v -0.002452 -0.013910 0.010970
v 0.024562 -0.014427 0.010893
v -0.004301 -0.013964 0.009303
v -0.004867 0.002287 -0.008690
v -0.002474 -0.015655 0.009831
v 0.025748 -0.015603 0.009203
v 0.031310 -0.014910 0.004859
v 0.006862 0.003247 0.009100
v 0.030094 -0.014305 0.008495
v 0.030094 -0.014910 0.007889
v -0.002351 -0.014431 -0.010872
v 0.028882 -0.014305 -0.009682
v -0.002393 -0.015604 -0.009178
v 0.028588 -0.015582 0.006891
v 0.029516 -0.005844 -0.005645
v 0.025205 -0.013898 0.010953
v 0.013673 0.003225 -0.007919
v 0.014218 0.003064 -0.007225
v 0.023128 -0.000835 0.007810
v 0.012546 0.003146 0.008440
v -0.004502 -0.013466 -0.009386
v 0.023190 -0.001365 -0.008391
v -0.004845 0.001698 -0.006360
v -0.004583 0.001582 0.009147
v 0.019240 0.000847 -0.007796
v 0.029490 -0.014305 -0.009076
v 0.017668 -0.015525 0.009697
v 0.028508 -0.005272 -0.006830
vn 0.0108 -0.6676 -0.7444
vn 0.0027 1.0000 -0.0004
vn 0.0031 1.0000 -0.0008
vn -0.0154 0.1314 0.9912
vn -0.8944 -0.4472 0.0000
vn -0.4020 0.0579 -0.9138
vn 0.0034 0.1615 -0.9869
vn 0.0790 0.2567 -0.9633
vn 0.1455 0.0468 -0.9882
vn -0.0124 0.1220 -0.9924
vn -0.0003 0.0281 -0.9996
vn 0.4286 0.5910 0.6834
vn 0.5929 0.7491 0.2956
vn 0.5604 0.8282 -0.0025
vn 0.9967 0.0802 -0.0098
vn 0.6840 -0.5680 -0.4577
vn 0.9095 0.1398 -0.3914
vn -0.2120 0.0769 0.9742
vn -0.4625 0.0365 0.8858
vn -0.0045 -0.3750 0.9270
vn -0.0142 0.0616 0.9980
vn -0.9597 -0.2807 0.0117
vn -0.9591 0.2830 -0.0008
vn -0.8507 0.0287 -0.5249
vn -0.1023 -0.9948 0.0000
vn 0.0026 -0.9995 0.0322
vn 0.9977 0.0672 0.0000
vn 0.5549 -0.8319 0.0000
vn 0.0044 0.9996 0.0263
vn 0.0049 0.1945 0.9809
vn -0.0003 -0.9811 -0.1935
vn 0.6186 0.0441 0.7845
vn 0.8931 0.0636 0.4453
vn 0.3093 -0.6650 0.6798
vn 0.3103 -0.6727 0.6716
vn 0.8695 -0.3495 0.3490
vn 0.9492 0.0220 0.3138
vn 0.0021 -0.4765 -0.8792
vn -0.2744 -0.1372 -0.9518
vn -0.2716 -0.0485 -0.9612
vn -0.0058 -0.0365 -0.9993
vn 0.3561 -0.0480 -0.9332
vn 0.2448 -0.7449 -0.6206
vn 0.2195 -0.6562 -0.7219
vn -0.0124 -0.9979 -0.0639
vn -0.0161 -0.9999 -0.0028
vn -0.0594 -0.9982 -0.0029
vn 0.0406 -0.9983 0.0408
vn 0.2324 -0.9323 0.2770
vn 0.2774 -0.9592 0.0544
vn 0.3295 -0.9348 0.1322
vn 0.6471 0.7595 -0.0666
vn 0.7894 0.5100 -0.3418
vn 0.7323 0.6768 -0.0750
vn 0.0007 -0.1135 0.9935
vn 0.0006 0.0043 1.0000
vn 0.3505 -0.5148 0.7824
vn 0.4434 -0.0704 0.8936
vn 0.0054 1.0000 -0.0014
vn 0.2849 0.9586 -0.0014
vn 0.3850 0.8812 0.2745
vn 0.4565 0.8897 -0.0023
vn 0.3965 0.9180 0.0031
vn 0.2625 0.6073 0.7499
vn 0.2468 0.5628 0.7889
vn 0.0550 0.9424 0.3298
vn 0.1127 0.3994 0.9098
vn -0.9965 -0.0828 0.0085
vn -0.9986 -0.0210 -0.0491
vn 0.2042 0.4705 -0.8584
vn 0.3668 0.5741 -0.7320
vn 0.2331 0.5646 -0.7918
vn 0.3046 0.6982 -0.6479
vn -0.9997 0.0208 0.0147
vn -0.9996 -0.0246 0.0101
vn -0.9997 -0.0233 0.0035
vn -0.8472 -0.0008 0.5312
vn -0.9153 -0.0126 0.4026
vn -0.9999 -0.0006 0.0169
vn -0.9997 -0.0180 0.0168
vn 0.3660 0.8357 -0.4094
vn 0.3928 0.9146 -0.0963
vn 0.4140 0.9103 -0.0050
vn 0.4037 0.9149 -0.0020
vn 0.5805 -0.5754 -0.5761
vn 0.7992 -0.2745 -0.5348
vn 0.8609 0.0598 -0.5052
vn 0.5763 -0.5776 -0.5782
vn 0.7059 0.0000 -0.7083
vn 0.0174 -0.7845 0.6198
vn 0.0279 -0.8112 0.5841
vn 0.0082 -0.9541 0.2995
vn 0.0081 -0.9589 0.2835
vn 0.6594 0.6510 -0.3761
vn 0.7365 0.5813 -0.3459
vn 0.6706 0.7052 -0.2300
vn 0.0092 -0.5808 -0.8140
vn 0.1804 -0.6511 -0.7372
usemtl None
s off
f 53//101 54//101 55//101
f 56//102 57//102 58//102
f 59//103 56//103 58//103
f 57//104 60//104 61//104
f 62//105 63//105 54//105
f 63//106 56//106 64//106
f 56//107 59//107 65//107
f 59//108 66//108 65//108
f 66//109 67//109 65//109
f 64//110 56//110 65//110
f 67//111 64//111 65//111
f 61//112 68//112 69//112
f 68//113 70//113 69//113
f 70//114 71//114 69//114
f 72//115 70//115 73//115
f 74//116 75//116 73//116
f 66//117 72//117 73//117
f 60//118 57//118 76//118
f 57//119 62//119 76//119
f 62//120 77//120 76//120
f 61//121 60//121 76//121
f 63//122 62//122 78//122
f 57//123 56//123 79//123
f 56//124 63//124 79//124
f 62//125 54//125 80//125
f 74//126 81//126 80//126
f 73//127 70//127 82//127
f 74//128 73//128 82//128
f 58//129 57//129 83//129
f 57//130 61//130 83//130
f 74//131 54//131 53//131
f 68//132 61//132 84//132
f 70//133 68//133 84//133
f 77//134 81//134 84//134
f 81//135 85//135 84//135
f 85//136 82//136 84//136
f 82//137 70//137 84//137
f 67//138 54//138 86//138
f 54//139 63//139 86//139
f 63//140 64//140 86//140
f 64//141 67//141 86//141
f 67//142 66//142 87//142
f 74//143 53//143 87//143
f 53//144 67//144 87//144
f 54//145 74//145 88//145
f 74//146 80//146 88//146
f 80//147 54//147 88//147
f 81//148 74//148 89//148
f 85//149 81//149 89//149
f 74//150 82//150 89//150
f 82//151 85//151 89//151
f 71//152 70//152 90//152
f 72//153 66//153 90//153
f 70//154 72//154 90//154
f 76//155 77//155 91//155
f 61//156 76//156 91//156
f 77//157 84//157 91//157
f 84//158 61//158 91//158
f 59//159 58//159 92//159
f 58//160 93//160 92//160
f 58//161 69//161 94//161
f 69//162 71//162 94//162
f 93//163 58//163 94//163
f 69//164 58//164 95//164
f 61//165 69//165 95//165
f 58//166 83//166 95//166
f 83//167 61//167 95//167
f 63//168 78//168 96//168
f 79//169 63//169 96//169
f 66//170 59//170 97//170
f 71//171 66//171 97//171
f 59//172 92//172 97//172
f 92//173 71//173 97//173
f 57//174 79//174 98//174
f 96//175 78//175 98//175
f 79//176 96//176 98//176
f 62//177 57//177 99//177
f 78//178 62//178 99//178
f 57//179 98//179 99//179
f 98//180 78//180 99//180
f 71//181 92//181 100//181
f 92//182 93//182 100//182
f 94//183 71//183 100//183
f 93//184 94//184 100//184
f 75//185 74//185 101//185
f 73//186 75//186 101//186
f 66//187 73//187 101//187
f 74//188 87//188 101//188
f 87//189 66//189 101//189
f 77//190 62//190 102//190
f 81//191 77//191 102//191
f 62//192 80//192 102//192
f 80//193 81//193 102//193
f 66//194 71//194 103//194
f 90//195 66//195 103//195
f 71//196 90//196 103//196
f 54//197 67//197 55//197
f 67//198 53//198 55//198
