# Blender v2.79 (sub 7) OBJ File: ''
# www.blender.org
mtllib tilting_hokuyo_L.mtl
o convex_0
v -0.061826 0.078396 0.022146
v -0.039661 -0.078162 0.056296
v -0.039661 0.078161 0.056296
v 0.014175 -0.078689 -0.054016
v 0.004363 -0.078902 -0.056645
v 0.004363 0.078901 -0.056645
v -0.055037 0.079259 -0.027190
v 0.032029 0.080147 -0.047578
v -0.037569 0.078966 0.059311
v 0.036089 0.078242 0.051458
v 0.036089 -0.078243 0.051458
v 0.055299 -0.077769 0.004977
v -0.037569 -0.078967 0.059311
v 0.052070 -0.080148 -0.027536
v 0.011779 -0.079033 0.064298
v -0.055037 -0.079260 -0.027190
v -0.005451 -0.077822 -0.055818
v 0.011779 0.079032 0.064298
v 0.052070 0.080147 -0.027536
v 0.056059 0.078782 -0.007303
v 0.029432 -0.079926 -0.049928
v -0.005451 0.077821 -0.055818
v 0.055299 0.077768 0.004977
v -0.062202 -0.078898 0.012399
v -0.061826 -0.078397 0.022146
v -0.000572 -0.078898 0.064194
v -0.062202 0.078897 0.012399
v 0.056059 -0.078783 -0.007303
v 0.024039 -0.078746 0.059155
v -0.000572 0.078897 0.064194
v 0.033685 0.078333 0.053968
v 0.029432 0.079925 -0.049928
v 0.024039 0.078744 0.059155
v -0.057029 0.078550 -0.017091
v 0.032029 -0.080148 -0.047578
v 0.033685 -0.078334 0.053968
v 0.053860 -0.079151 -0.019707
v -0.057029 -0.078552 -0.017091
v 0.053860 0.079150 -0.019707
vn -0.8388 -0.0000 0.5444
vn 0.2588 0.0000 -0.9659
vn -0.0247 0.9978 -0.0619
vn -0.0090 0.9999 0.0052
vn 0.9242 0.0000 0.3820
vn -0.0025 -0.9999 0.0111
vn -0.1277 -0.9546 -0.2692
vn -0.5000 -0.0000 -0.8660
vn -0.0840 -0.0000 -0.9965
vn -0.0025 0.9999 0.0111
vn 0.7071 0.0000 -0.7071
vn -0.0067 1.0000 0.0067
vn 0.1078 0.9931 0.0458
vn 0.2588 -0.0001 -0.9659
vn -0.1277 0.9546 -0.2692
vn 0.2541 0.9625 0.0952
vn 0.9981 0.0000 0.0618
vn -0.0150 -0.9999 0.0064
vn -0.1079 -0.9926 0.0552
vn -0.9993 -0.0000 0.0385
vn -0.1308 -0.0000 0.9914
vn -0.0084 -0.0000 1.0000
vn -0.0117 -0.9946 0.1030
vn -0.0150 0.9999 0.0064
vn -0.1079 0.9926 0.0552
vn 0.1078 -0.9931 0.0458
vn 0.2541 -0.9625 0.0952
vn 0.3868 0.0000 0.9221
vn 0.0349 -0.9990 0.0274
vn -0.0117 0.9946 0.1030
vn 0.7222 0.0000 0.6917
vn 0.0796 0.9960 0.0401
vn -0.0220 0.9973 -0.0699
vn 0.6710 0.0000 -0.7415
vn 0.0350 0.9990 0.0275
vn 0.0620 0.9974 0.0362
vn 0.4736 0.0000 0.8807
vn -0.9811 -0.0000 -0.1935
vn -0.9522 0.2536 -0.1700
vn -0.9850 -0.0000 -0.1728
vn -0.0247 -0.9978 -0.0619
vn -0.0090 -0.9999 0.0052
vn -0.0067 -1.0000 0.0067
vn -0.0220 -0.9973 -0.0699
vn 0.0796 -0.9960 0.0401
vn 0.0621 -0.9974 0.0362
vn 0.9748 0.0000 -0.2229
vn 0.9846 0.0000 -0.1746
vn 0.8762 -0.4607 -0.1417
vn -0.8216 -0.0000 0.5701
vn -0.8306 -0.1359 0.5400
vn -0.9521 -0.2540 -0.1700
vn 0.8762 0.4607 -0.1417
vn -0.8306 0.1359 0.5400
usemtl None
s off
f 1//1 2//1 3//1
f 4//2 5//2 6//2
f 6//3 7//3 8//3
f 7//4 9//4 8//4
f 10//5 11//5 12//5
f 13//6 14//6 15//6
f 5//7 16//7 17//7
f 16//8 7//8 17//8
f 6//9 5//9 17//9
f 9//10 18//10 19//10
f 14//11 8//11 19//11
f 8//12 9//12 19//12
f 10//13 20//13 19//13
f 5//14 4//14 21//14
f 4//2 6//2 21//2
f 7//15 6//15 22//15
f 17//8 7//8 22//8
f 6//9 17//9 22//9
f 20//16 10//16 23//16
f 10//5 12//5 23//5
f 12//17 20//17 23//17
f 16//18 13//18 24//18
f 13//19 25//19 24//19
f 25//20 1//20 24//20
f 9//21 13//21 26//21
f 15//22 18//22 26//22
f 13//23 15//23 26//23
f 9//24 7//24 27//24
f 1//25 9//25 27//25
f 24//20 1//20 27//20
f 11//26 14//26 28//26
f 12//27 11//27 28//27
f 20//17 12//17 28//17
f 18//28 15//28 29//28
f 15//29 14//29 29//29
f 18//30 9//30 30//30
f 26//22 18//22 30//22
f 9//21 26//21 30//21
f 11//31 10//31 31//31
f 10//32 19//32 31//32
f 6//33 8//33 32//33
f 21//2 6//2 32//2
f 8//34 21//34 32//34
f 19//35 18//35 33//35
f 18//28 29//28 33//28
f 31//36 19//36 33//36
f 29//37 31//37 33//37
f 7//38 16//38 34//38
f 27//39 7//39 34//39
f 24//40 27//40 34//40
f 16//41 5//41 35//41
f 13//42 16//42 35//42
f 14//43 13//43 35//43
f 8//11 14//11 35//11
f 5//44 21//44 35//44
f 21//34 8//34 35//34
f 14//45 11//45 36//45
f 29//46 14//46 36//46
f 11//31 31//31 36//31
f 31//37 29//37 36//37
f 14//47 19//47 37//47
f 20//48 28//48 37//48
f 28//49 14//49 37//49
f 13//50 9//50 2//50
f 25//51 13//51 2//51
f 1//1 25//1 2//1
f 16//52 24//52 38//52
f 34//38 16//38 38//38
f 24//40 34//40 38//40
f 19//53 20//53 39//53
f 20//48 37//48 39//48
f 37//47 19//47 39//47
f 9//54 1//54 3//54
f 2//50 9//50 3//50
