# Blender v2.79 (sub 7) OBJ File: ''
# www.blender.org
mtllib torso_lift_L.mtl
o convex_2
v -0.260002 -0.200136 0.104344
v -0.205442 -0.200195 0.140728
v -0.266668 -0.189628 0.135664
v -0.282839 0.163078 0.135750
v -0.285270 -0.177032 -0.042227
v -0.282508 -0.165321 0.135519
v -0.021637 -0.005130 -0.046354
v -0.021637 -0.005130 0.133368
v -0.205442 -0.208677 -0.045224
v -0.205442 0.205539 0.140728
v -0.212071 -0.161565 -0.050938
v -0.026641 0.010134 0.129880
v -0.205442 0.214021 -0.045224
v -0.211325 0.164919 -0.049794
v -0.261202 0.207701 -0.042571
v -0.205442 -0.208677 0.106906
v -0.026641 0.010134 -0.042865
v -0.282370 0.178508 -0.016414
v -0.283175 0.179581 -0.040894
v -0.260597 0.198397 0.137305
v -0.267646 -0.199355 -0.041311
v -0.205442 0.214021 0.005498
vn -0.1856 -0.9428 0.2768
vn -0.9999 -0.0010 0.0156
vn 0.7422 -0.6702 0.0000
vn 0.0400 0.0000 0.9992
vn 0.1096 -0.1045 -0.9885
vn 0.9502 0.3115 0.0000
vn 0.4112 0.3291 0.8501
vn 0.0910 0.0815 -0.9925
vn -0.0585 0.0995 -0.9933
vn 0.0212 0.0035 -0.9998
vn -0.1190 0.0038 -0.9929
vn 0.7205 -0.6726 0.1687
vn -0.1611 -0.9573 0.2401
vn 0.3793 0.3226 -0.8672
vn 0.7518 0.6593 0.0000
vn -0.8470 0.5291 0.0510
vn -1.0000 0.0059 0.0025
vn -0.1220 0.0044 -0.9925
vn -0.1165 0.0318 -0.9927
vn -0.8461 0.5306 0.0512
vn -0.0685 -0.0008 0.9976
vn -0.0678 -0.0008 0.9977
vn -0.0619 -0.0000 0.9981
vn -0.8458 0.5311 0.0511
vn -0.7865 0.6166 0.0345
vn -0.0818 -0.1313 -0.9880
vn -0.0935 -0.1144 -0.9890
vn -0.7851 -0.6183 0.0379
vn -0.1482 -0.9890 0.0000
vn -0.1548 -0.9879 0.0028
vn -0.1126 0.9936 0.0000
vn 0.7383 0.6732 0.0422
vn -0.1320 0.9893 0.0621
vn -0.1562 0.9864 0.0515
vn -0.8369 -0.5451 0.0489
vn -0.0915 -0.0537 0.9944
vn -0.7875 -0.6151 0.0388
usemtl None
s off
f 1//1 2//1 3//1
f 4//2 5//2 6//2
f 7//3 8//3 9//3
f 8//4 10//4 2//4
f 7//5 9//5 11//5
f 8//6 7//6 12//6
f 10//7 8//7 12//7
f 13//8 7//8 14//8
f 15//9 13//9 14//9
f 7//10 11//10 14//10
f 11//11 5//11 14//11
f 9//3 8//3 16//3
f 8//12 2//12 16//12
f 2//13 1//13 16//13
f 7//14 13//14 17//14
f 12//6 7//6 17//6
f 13//15 12//15 17//15
f 4//16 18//16 19//16
f 5//17 4//17 19//17
f 14//18 5//18 19//18
f 15//19 14//19 19//19
f 18//20 4//20 20//20
f 4//21 6//21 20//21
f 6//22 2//22 20//22
f 2//23 10//23 20//23
f 19//24 18//24 20//24
f 15//25 19//25 20//25
f 11//26 9//26 21//26
f 5//27 11//27 21//27
f 1//28 5//28 21//28
f 9//29 16//29 21//29
f 16//30 1//30 21//30
f 13//31 15//31 22//31
f 12//15 13//15 22//15
f 10//32 12//32 22//32
f 20//33 10//33 22//33
f 15//34 20//34 22//34
f 6//35 5//35 3//35
f 2//36 6//36 3//36
f 5//37 1//37 3//37
o convex_1
v -0.021412 -0.004905 -0.077083
v -0.051775 -0.035268 -0.486845
v -0.021412 -0.004905 -0.486857
v -0.171638 0.171751 -0.053713
v -0.217750 0.178165 -0.045054
v -0.011026 0.011112 -0.053713
v -0.212071 -0.163356 -0.057832
v -0.212023 -0.163276 -0.506000
v -0.209803 0.164919 -0.501004
v -0.011026 0.011112 -0.510227
v -0.171638 0.171751 -0.510227
v -0.165567 -0.149060 -0.077132
v -0.165567 -0.149060 -0.486808
vn 0.7071 -0.7071 0.0000
vn 0.2084 0.2084 0.9556
vn 0.0118 -0.0372 0.9992
vn -0.9999 -0.0166 -0.0001
vn -0.9998 0.0070 -0.0176
vn 0.7072 0.7070 0.0000
vn 0.1378 0.9905 0.0000
vn -0.1835 0.9825 -0.0317
vn -0.2376 0.0164 -0.9712
vn -0.0113 -0.0113 -0.9999
vn 0.4588 -0.5452 0.7016
vn 0.2927 -0.9562 -0.0001
vn 0.4571 -0.5440 -0.7036
vn 0.2938 -0.9559 0.0000
vn 0.8390 -0.5441 0.0000
vn 0.6970 -0.6971 0.1680
vn 0.6970 -0.6971 -0.1680
vn 0.7206 -0.6933 -0.0053
usemtl None
s off
f 23//38 24//38 25//38
f 26//39 27//39 28//39
f 27//40 29//40 28//40
f 29//41 27//41 30//41
f 27//42 31//42 30//42
f 26//43 28//43 32//43
f 27//44 26//44 33//44
f 31//45 27//45 33//45
f 30//46 31//46 33//46
f 32//47 30//47 33//47
f 26//43 32//43 33//43
f 28//48 29//48 34//48
f 29//49 30//49 35//49
f 30//50 32//50 35//50
f 34//51 29//51 35//51
f 24//38 34//38 35//38
f 32//52 28//52 23//52
f 28//53 34//53 23//53
f 34//38 24//38 23//38
f 35//54 32//54 25//54
f 24//55 35//55 25//55
f 32//52 23//52 25//52
o convex_0
v -0.173540 -0.178278 0.280555
v -0.250043 -0.098504 0.279917
v -0.249318 -0.144424 0.264244
v 0.096983 -0.005557 0.313558
v 0.061194 -0.195191 0.307763
v 0.115743 -0.107180 0.242153
v 0.094793 0.093202 0.157500
v 0.094793 -0.096272 0.157500
v -0.205441 0.205515 0.140745
v -0.205441 -0.200186 0.140745
v 0.048138 0.264739 0.166115
v -0.036388 0.264739 0.166115
v -0.265096 -0.191653 0.144558
v -0.036428 -0.267855 0.166115
v 0.048138 -0.267855 0.166115
v 0.080688 0.186243 0.241463
v -0.094920 -0.185727 0.303937
v -0.095077 -0.205417 0.289446
v -0.282165 0.165018 0.144159
v -0.279649 0.162869 0.169339
v -0.256185 0.187625 0.217438
v -0.282701 -0.160448 0.143925
v -0.264473 -0.182883 0.209352
v -0.258223 0.198047 0.143946
v 0.041757 -0.232733 0.157500
v 0.065020 0.247795 0.166115
v 0.049308 0.222043 0.157500
v 0.056599 -0.259357 0.166115
v -0.241114 -0.074648 0.287232
v -0.251194 0.096120 0.280273
v -0.148168 -0.081693 0.309663
v -0.148168 0.078577 0.309663
v -0.102540 0.179974 0.302872
v -0.117806 0.125025 0.310098
v 0.098025 0.002414 0.314034
v -0.263572 -0.085750 0.265577
v -0.263739 -0.158069 0.241517
v -0.263750 0.082718 0.265614
v -0.235880 0.158926 0.264723
v -0.103036 0.201787 0.289297
v -0.255879 -0.190399 0.201386
v 0.058268 0.196326 0.306219
v 0.059461 0.156597 0.310533
v -0.117629 -0.127458 0.309632
v 0.058116 -0.207297 0.289998
v 0.057028 0.202689 0.297563
v 0.059218 -0.159451 0.310399
v 0.066144 0.196104 0.289994
v -0.239756 0.078560 0.286723
v -0.071277 0.200648 0.296883
v -0.264147 0.155314 0.241545
v -0.255507 0.170844 0.241503
v 0.074036 -0.190943 0.265753
v -0.252983 -0.179218 0.233432
v -0.221212 -0.171093 0.264980
v -0.279831 -0.158117 0.169282
v -0.279587 -0.029556 0.193413
v -0.279781 0.026467 0.193377
v -0.047491 0.192755 0.304834
v 0.034170 0.237237 0.157500
v -0.118947 0.201462 0.281231
v 0.072033 -0.172052 0.157500
v 0.072033 0.176556 0.157500
v -0.271611 -0.045635 0.233493
vn -0.3302 -0.3096 0.8917
vn 0.8604 -0.1770 0.4779
vn 0.9707 0.0000 -0.2402
vn 0.0557 0.0000 -0.9984
vn 0.0000 0.3938 -0.9192
vn -0.1392 -0.6332 -0.7614
vn 0.0000 -0.3511 -0.9364
vn 0.9923 0.1186 0.0352
vn -0.0556 -0.5915 0.8044
vn -0.8328 0.5384 0.1292
vn -0.0449 0.0008 -0.9990
vn -0.8692 -0.4889 0.0745
vn -0.0724 -0.0610 -0.9955
vn -0.0411 -0.0000 -0.9992
vn -0.0664 0.0417 -0.9969
vn -0.1417 0.7031 -0.6968
vn -0.8048 0.5841 0.1052
vn -0.2980 0.9439 0.1421
vn 0.0353 -0.2320 -0.9721
vn 0.9804 0.1915 -0.0475
vn 0.1998 0.1991 -0.9594
vn 0.9365 -0.2332 -0.2618
vn 0.1999 -0.1990 -0.9594
vn -0.2560 -0.1945 0.9469
vn -0.6255 -0.0051 0.7802
vn -0.2346 0.0000 0.9721
vn -0.2541 0.1952 0.9473
vn 0.4462 -0.1114 0.8880
vn 0.8887 -0.1422 0.4359
vn 0.9909 0.1185 0.0635
vn -0.0178 0.0000 0.9998
vn -0.0172 0.0019 0.9999
vn -0.7298 -0.0056 0.6836
vn -0.7930 -0.1907 0.5786
vn -0.7591 -0.0009 0.6510
vn -0.3058 0.2984 0.9041
vn -0.3103 0.4972 0.8103
vn -0.5923 -0.7977 0.1137
vn -0.3215 -0.9441 0.0730
vn -0.2661 -0.9051 0.3316
vn 0.3612 0.1114 0.9258
vn -0.0062 0.0211 0.9998
vn -0.0310 -0.1092 0.9935
vn -0.2539 -0.1916 0.9481
vn -0.2431 -0.1629 0.9562
vn -0.0143 -0.0102 0.9998
vn 0.0000 -0.8984 0.4392
vn -0.0122 -0.8253 0.5645
vn -0.0126 -0.8945 0.4469
vn 0.6810 -0.6780 0.2766
vn 0.8331 -0.5135 0.2056
vn 0.0000 0.9043 0.4269
vn 0.6812 0.6787 0.2743
vn 0.1710 -0.0631 0.9833
vn -0.0178 -0.0745 0.9971
vn -0.0080 -0.0205 0.9998
vn 0.8815 0.4386 0.1750
vn 0.8828 0.1982 0.4258
vn 0.9508 0.1871 0.2469
vn 0.7199 0.6044 0.3412
vn 0.7008 0.6606 0.2693
vn -0.4828 0.0072 0.8757
vn -0.2430 0.0054 0.9700
vn -0.2403 0.1481 0.9593
vn -0.2524 0.1845 0.9499
vn -0.1813 0.5166 0.8368
vn -0.0689 0.9030 0.4242
vn -0.0166 0.8996 0.4365
vn -0.0159 0.8045 0.5937
vn -0.8900 0.3925 0.2321
vn -0.8207 0.4575 0.3422
vn -0.9741 0.0663 0.2161
vn -0.8212 0.1755 0.5429
vn -0.6207 0.3472 0.7029
vn -0.6237 0.3278 0.7096
vn 0.8949 -0.3793 0.2352
vn 0.8357 -0.5099 0.2039
vn 0.9017 -0.4135 0.1261
vn -0.7284 -0.5344 0.4289
vn -0.3168 -0.7914 0.5228
vn -0.4276 -0.8408 0.3320
vn -0.2697 -0.9013 0.3389
vn -0.9258 -0.3522 0.1372
vn -0.9933 -0.0196 0.1142
vn -0.9462 -0.2455 0.2109
vn -0.9737 -0.0699 0.2170
vn -0.9947 0.0188 0.1010
vn -0.9986 0.0016 0.0529
vn -0.9974 -0.0034 0.0718
vn -0.9810 0.0346 0.1908
vn -0.0698 0.1491 0.9864
vn -0.0166 0.1074 0.9941
vn -0.0199 0.0980 0.9950
vn -0.0321 0.6596 0.7509
vn -0.1388 0.4634 0.8752
vn 0.0292 0.2853 -0.9580
vn 0.0615 0.0613 -0.9962
vn -0.2001 0.9121 0.3579
vn -0.3314 0.7695 0.5459
vn -0.2440 0.9130 0.3269
vn -0.3407 0.6878 0.6410
vn -0.3403 0.6856 0.6436
vn 0.0621 -0.0187 -0.9979
vn 0.0634 -0.0317 -0.9975
vn 0.6134 -0.1842 -0.7680
vn 0.2898 -0.1446 -0.9461
vn 0.0620 0.0169 -0.9979
vn 0.0635 0.0317 -0.9975
vn 0.5626 0.1536 -0.8123
vn 0.2857 0.1427 -0.9476
vn -0.9703 -0.0011 0.2418
vn -0.9827 -0.0324 0.1826
vn -0.9799 -0.0400 0.1955
vn -0.9810 -0.0033 0.1939
vn -0.9774 0.0069 0.2115
vn -0.2979 -0.2784 0.9131
vn -0.2837 -0.5669 0.7734
vn -0.3148 -0.7004 0.6406
vn -0.3378 -0.3317 0.8809
vn -0.7578 -0.2215 0.6138
vn -0.5393 -0.5258 0.6578
vn -0.5235 -0.5333 0.6645
usemtl None
s off
f 36//56 37//56 38//56
f 39//57 40//57 41//57
f 42//58 41//58 43//58
f 44//59 42//59 43//59
f 44//59 43//59 45//59
f 46//60 44//60 47//60
f 48//61 45//61 49//61
f 45//62 50//62 49//62
f 41//63 42//63 51//63
f 40//64 52//64 53//64
f 54//65 55//65 56//65
f 54//66 44//66 57//66
f 48//67 58//67 57//67
f 45//68 48//68 57//68
f 44//69 45//69 57//69
f 44//70 54//70 59//70
f 47//71 44//71 59//71
f 54//72 56//72 59//72
f 56//73 47//73 59//73
f 50//74 45//74 60//74
f 51//75 42//75 61//75
f 62//76 46//76 61//76
f 43//77 41//77 63//77
f 50//78 60//78 63//78
f 37//79 52//79 64//79
f 65//80 37//80 64//80
f 66//81 67//81 64//81
f 68//82 65//82 69//82
f 40//83 39//83 70//83
f 39//84 41//84 70//84
f 41//85 51//85 70//85
f 67//86 66//86 70//86
f 69//87 67//87 70//87
f 37//88 65//88 71//88
f 72//89 37//89 71//89
f 65//90 73//90 71//90
f 65//91 68//91 74//91
f 68//92 75//92 74//92
f 58//93 48//93 76//93
f 48//94 49//94 76//94
f 49//95 53//95 76//95
f 70//96 77//96 78//96
f 69//97 70//97 78//97
f 52//98 40//98 79//98
f 64//99 52//99 79//99
f 66//100 64//100 79//100
f 70//101 66//101 79//101
f 49//102 50//102 80//102
f 40//103 53//103 80//103
f 53//104 49//104 80//104
f 50//105 63//105 80//105
f 63//106 40//106 80//106
f 46//107 47//107 81//107
f 61//108 46//108 81//108
f 40//109 70//109 82//109
f 79//110 40//110 82//110
f 70//111 79//111 82//111
f 51//112 61//112 83//112
f 77//113 70//113 83//113
f 70//114 51//114 83//114
f 81//115 77//115 83//115
f 61//116 81//116 83//116
f 65//117 64//117 84//117
f 64//118 67//118 84//118
f 67//119 69//119 84//119
f 69//120 65//120 84//120
f 75//121 68//121 85//121
f 47//122 75//122 85//122
f 81//123 47//123 85//123
f 77//124 81//124 85//124
f 56//125 55//125 86//125
f 87//126 56//126 86//126
f 55//127 73//127 86//127
f 73//128 65//128 86//128
f 74//129 87//129 86//129
f 65//130 74//130 86//130
f 41//131 40//131 88//131
f 40//132 63//132 88//132
f 63//133 41//133 88//133
f 72//134 58//134 89//134
f 53//135 90//135 89//135
f 58//136 76//136 89//136
f 76//137 53//137 89//137
f 57//138 58//138 91//138
f 92//139 57//139 91//139
f 58//140 72//140 91//140
f 72//141 71//141 91//141
f 55//142 54//142 93//142
f 54//143 57//143 93//143
f 57//144 92//144 93//144
f 73//145 55//145 93//145
f 68//146 69//146 94//146
f 78//147 77//147 94//147
f 69//148 78//148 94//148
f 77//149 85//149 94//149
f 85//150 68//150 94//150
f 44//151 46//151 95//151
f 46//76 62//76 95//76
f 62//152 44//152 95//152
f 75//153 47//153 96//153
f 56//154 87//154 96//154
f 47//155 56//155 96//155
f 87//156 74//156 96//156
f 74//157 75//157 96//157
f 45//158 43//158 97//158
f 60//159 45//159 97//159
f 43//160 63//160 97//160
f 63//161 60//161 97//161
f 42//162 44//162 98//162
f 44//163 62//163 98//163
f 61//164 42//164 98//164
f 62//165 61//165 98//165
f 71//166 73//166 99//166
f 92//167 91//167 99//167
f 91//168 71//168 99//168
f 93//169 92//169 99//169
f 73//170 93//170 99//170
f 52//171 37//171 36//171
f 53//172 52//172 36//172
f 90//173 53//173 36//173
f 90//174 36//174 38//174
f 37//175 72//175 38//175
f 72//176 89//176 38//176
f 89//177 90//177 38//177
