# Blender v2.79 (sub 7) OBJ File: ''
# www.blender.org
mtllib upper_arm_roll_L.mtl
o convex_3
v 0.122063 0.063262 0.035044
v 0.117880 0.063262 0.032951
v 0.117880 0.063262 0.035044
v 0.122063 -0.063262 0.032951
v 0.122063 -0.063262 0.035044
v 0.117880 -0.063262 0.032951
v 0.122063 0.063262 0.032951
v 0.117880 -0.023523 0.069561
v 0.117880 0.059087 0.043414
v 0.117880 0.023523 0.069561
v 0.123110 -0.030844 0.052826
v 0.123028 -0.029872 0.067006
v 0.123028 0.029872 0.067006
v 0.117880 -0.043393 0.059098
v 0.117880 -0.003654 0.072701
v 0.123110 0.030844 0.052826
v 0.122063 -0.059087 0.043414
v 0.117880 0.044445 0.058052
v 0.122063 0.043393 0.059098
v 0.122063 0.058034 0.044460
v 0.117880 -0.058034 0.044460
v 0.122063 -0.044445 0.058052
v 0.117880 0.003654 0.072701
v 0.117880 -0.063262 0.035044
v 0.117880 0.041299 0.060145
vn 0.0000 1.0000 0.0000
vn 0.0000 -1.0000 0.0000
vn 0.0000 0.0000 -1.0000
vn -1.0000 0.0000 -0.0000
vn 0.9995 -0.0323 0.0000
vn 0.9986 0.0000 -0.0526
vn 0.9993 -0.0368 0.0083
vn 1.0000 0.0000 0.0058
vn -0.1342 -0.4617 0.8768
vn 0.2853 -0.1496 0.9467
vn 0.7418 0.0000 0.6706
vn 0.9981 -0.0552 0.0275
vn 0.0010 0.7070 0.7072
vn 0.0011 0.7070 0.7072
vn 0.9717 0.1671 0.1671
vn -0.0011 -0.7070 0.7072
vn 0.0796 -0.5257 0.8470
vn 0.9717 -0.1670 0.1670
vn -0.0010 -0.7070 0.7072
vn 0.2853 0.1496 0.9467
vn 0.9995 0.0323 0.0000
vn 0.9993 0.0368 0.0083
vn 0.0982 0.8701 0.4831
vn 0.9975 0.0615 0.0342
vn 0.0000 -0.8949 0.4464
vn -0.0982 -0.8701 0.4831
vn -0.1374 0.4636 0.8753
vn -0.0354 0.5027 0.8638
vn -0.0687 0.5526 0.8306
vn 0.0000 0.8949 0.4464
usemtl None
s off
f 1//1 2//1 3//1
f 4//2 5//2 6//2
f 7//3 4//3 6//3
f 8//4 9//4 6//4
f 9//4 8//4 10//4
f 7//3 6//3 2//3
f 6//4 9//4 2//4
f 5//5 4//5 11//5
f 4//6 7//6 11//6
f 12//7 5//7 11//7
f 13//8 12//8 11//8
f 8//4 6//4 14//4
f 12//9 8//9 14//9
f 8//10 12//10 15//10
f 12//11 13//11 15//11
f 10//4 8//4 15//4
f 11//6 7//6 16//6
f 13//8 11//8 16//8
f 5//12 12//12 17//12
f 9//4 10//4 18//4
f 19//13 9//13 18//13
f 9//14 19//14 20//14
f 19//15 13//15 20//15
f 14//4 6//4 21//4
f 17//16 14//16 21//16
f 12//17 14//17 22//17
f 17//18 12//18 22//18
f 14//19 17//19 22//19
f 13//20 10//20 23//20
f 15//11 13//11 23//11
f 10//4 15//4 23//4
f 7//1 2//1 1//1
f 16//21 7//21 1//21
f 13//22 16//22 1//22
f 9//23 20//23 1//23
f 20//24 13//24 1//24
f 6//2 5//2 24//2
f 5//25 17//25 24//25
f 21//4 6//4 24//4
f 17//26 21//26 24//26
f 10//27 13//27 25//27
f 13//28 19//28 25//28
f 18//4 10//4 25//4
f 19//29 18//29 25//29
f 2//4 9//4 3//4
f 9//30 1//30 3//30
o convex_2
v 0.140329 -0.028900 0.067006
v 0.140370 0.029043 0.053257
v 0.140329 0.028900 0.067006
v 0.123674 0.028900 0.067006
v 0.123337 0.030072 0.053013
v 0.123337 -0.030072 0.053013
v 0.140370 -0.029043 0.053257
v 0.123674 -0.028900 0.067006
vn 1.0000 0.0000 0.0030
vn -0.9997 0.0000 0.0241
vn 0.0143 0.0000 -0.9999
vn 0.0601 -0.9981 0.0106
vn 0.0000 0.0000 1.0000
vn 0.0000 -0.9965 0.0835
vn -0.0000 0.9965 0.0835
vn 0.0601 0.9981 0.0106
usemtl None
s off
f 26//31 27//31 28//31
f 29//32 30//32 31//32
f 30//33 32//33 31//33
f 32//33 30//33 27//33
f 31//34 32//34 26//34
f 32//31 27//31 26//31
f 29//32 31//32 33//32
f 26//35 29//35 33//35
f 31//36 26//36 33//36
f 30//37 29//37 28//37
f 27//38 30//38 28//38
f 29//35 26//35 28//35
o convex_1
v 0.122064 0.072697 -0.003667
v 0.117880 0.072697 0.003657
v 0.122064 0.072697 0.003657
v 0.122064 -0.050722 -0.051780
v 0.122064 -0.059090 -0.043411
v 0.117880 -0.050722 -0.051780
v 0.117880 -0.064327 0.032951
v 0.117880 0.058053 -0.044456
v 0.122064 -0.065366 0.031898
v 0.122064 0.069552 -0.023522
v 0.117880 0.064329 0.032951
v 0.122064 0.064329 0.032951
v 0.122064 0.050723 -0.051780
v 0.117880 -0.072696 -0.003667
v 0.117880 0.072697 -0.003667
v 0.122064 -0.072696 -0.003667
v 0.117880 0.050723 -0.051780
v 0.117880 -0.069550 -0.023522
v 0.122064 0.071644 0.010980
v 0.117880 -0.069550 0.023529
v 0.117880 0.069552 -0.023522
v 0.117880 0.069552 0.023529
v 0.122064 -0.069550 -0.023522
v 0.122064 -0.070603 0.017259
v 0.117880 -0.059090 -0.043411
v 0.122064 0.060145 -0.041305
v 0.122064 0.069552 0.023529
v 0.117880 -0.072696 0.003657
v 0.122064 -0.069550 0.023529
v 0.122064 -0.072696 0.003657
v 0.117880 0.066421 -0.029801
v 0.117880 -0.065366 -0.031891
v 0.122064 0.058053 -0.044456
vn 0.0000 1.0000 0.0000
vn 0.0000 -0.7071 -0.7071
vn -1.0000 -0.0000 -0.0000
vn 1.0000 0.0000 0.0000
vn 0.2422 -0.0079 0.9702
vn 0.0000 0.0000 1.0000
vn 0.0000 0.0000 -1.0000
vn 0.0000 0.7068 -0.7074
vn 0.0000 -0.9877 -0.1565
vn -0.0947 -0.8707 0.4826
vn 0.0000 0.9877 -0.1564
vn 0.0000 0.8746 0.4848
vn 0.0000 0.9864 0.1644
vn 0.0000 -1.0000 0.0000
vn -0.0143 -0.9876 0.1563
vn -0.0250 0.9874 0.1563
vn 0.0000 -0.8944 0.4472
vn 0.0000 -0.9862 0.1656
vn 0.0000 -0.9884 0.1521
vn 0.0000 0.8949 -0.4462
vn -0.0607 0.8668 -0.4949
vn 0.0402 0.8832 -0.4672
vn 0.0459 -0.8841 -0.4650
vn 0.0000 -0.8944 -0.4472
vn 0.0000 -0.8781 -0.4784
vn 0.0000 0.8331 -0.5531
vn 0.0000 0.9898 0.1423
usemtl None
s off
f 34//39 35//39 36//39
f 37//40 38//40 39//40
f 39//41 40//41 41//41
f 38//42 37//42 42//42
f 42//42 37//42 43//42
f 41//41 40//41 44//41
f 40//43 42//43 45//43
f 42//42 43//42 45//42
f 44//44 40//44 45//44
f 37//45 39//45 46//45
f 43//42 37//42 46//42
f 40//41 39//41 47//41
f 41//41 44//41 48//41
f 38//42 42//42 49//42
f 39//41 41//41 50//41
f 46//45 39//45 50//45
f 41//46 46//46 50//46
f 47//41 39//41 51//41
f 49//47 47//47 51//47
f 45//42 43//42 52//42
f 42//48 40//48 53//48
f 40//41 47//41 53//41
f 41//41 48//41 54//41
f 48//49 43//49 54//49
f 44//50 45//50 55//50
f 48//41 44//41 55//41
f 38//42 49//42 56//42
f 49//47 51//47 56//47
f 49//42 42//42 57//42
f 39//40 38//40 58//40
f 51//41 39//41 58//41
f 43//42 46//42 59//42
f 43//49 48//49 34//49
f 52//42 43//42 34//42
f 45//42 52//42 60//42
f 55//50 45//50 60//50
f 52//51 55//51 60//51
f 47//52 49//52 61//52
f 53//41 47//41 61//41
f 57//53 53//53 61//53
f 48//41 55//41 35//41
f 55//54 52//54 35//54
f 34//39 48//39 35//39
f 42//55 53//55 62//55
f 57//42 42//42 62//42
f 53//56 57//56 62//56
f 49//42 57//42 63//42
f 61//52 49//52 63//52
f 57//57 61//57 63//57
f 41//41 54//41 64//41
f 54//58 43//58 64//58
f 59//59 41//59 64//59
f 43//60 59//60 64//60
f 38//61 56//61 65//61
f 56//62 51//62 65//62
f 58//63 38//63 65//63
f 51//41 58//41 65//41
f 46//46 41//46 66//46
f 41//64 59//64 66//64
f 59//42 46//42 66//42
f 52//42 34//42 36//42
f 35//65 52//65 36//65
o convex_0
v 0.118870 0.039676 -0.059374
v 0.122067 0.043404 -0.059104
v 0.118870 0.029148 -0.065107
v 0.122067 0.049678 -0.051780
v 0.118870 0.045412 -0.052678
v 0.122067 -0.049678 -0.051780
v 0.140370 -0.029459 -0.053254
v 0.139876 0.028134 -0.067006
v 0.139876 -0.028134 -0.067006
v 0.140370 0.029459 -0.053254
v 0.122067 -0.003658 -0.072699
v 0.118870 -0.045412 -0.052678
v 0.118870 -0.037765 -0.060330
v 0.122067 0.023531 -0.069560
v 0.122067 -0.023531 -0.069560
v 0.122067 -0.043404 -0.059104
v 0.122067 0.003658 -0.072699
v 0.119006 -0.003300 -0.071677
v 0.118891 -0.021466 -0.068918
v 0.118891 0.021466 -0.068918
v 0.122067 0.049678 -0.052828
v 0.122067 -0.049678 -0.052828
v 0.119006 0.003300 -0.071677
v 0.122067 -0.010982 -0.071653
v 0.122067 0.010982 -0.071653
v 0.118870 -0.040637 -0.058417
vn -0.4353 0.4306 -0.7907
vn -0.2704 -0.0000 0.9627
vn 0.0803 0.0000 0.9968
vn 0.9994 0.0000 -0.0359
vn 0.3045 0.0000 -0.9525
vn -1.0000 -0.0000 0.0000
vn 0.0066 0.4656 -0.8850
vn 0.0066 -0.4656 -0.8850
vn -0.3167 0.0000 -0.9485
vn -0.4342 -0.4195 -0.7972
vn -0.4339 -0.4195 -0.7973
vn -0.9991 0.0000 -0.0416
vn -0.8002 0.5997 0.0000
vn 0.7414 0.6711 0.0000
vn 0.7373 0.6694 -0.0910
vn 0.2809 0.6787 -0.6785
vn -0.7221 0.5254 -0.4500
vn -0.6076 0.5617 -0.5615
vn 0.7414 -0.6711 0.0000
vn 0.7373 -0.6694 -0.0910
vn -0.8002 -0.5997 0.0000
vn 0.2809 -0.6787 -0.6785
vn 0.1212 -0.1403 -0.9827
vn -0.3279 -0.1336 -0.9352
vn 0.0985 -0.1637 -0.9816
vn -0.3416 -0.1390 -0.9295
vn -0.2929 -0.1573 -0.9431
vn 0.0985 0.1637 -0.9816
vn -0.2929 0.1573 -0.9431
vn 0.1212 0.1403 -0.9827
vn -0.3416 0.1390 -0.9295
vn -0.3279 0.1336 -0.9352
vn -0.5501 -0.4630 -0.6951
vn -0.7260 -0.5286 -0.4398
vn -0.6071 -0.5620 -0.5618
vn -0.3830 0.4301 -0.8175
vn -0.4250 0.4014 -0.8114
vn -1.0000 -0.0002 -0.0028
vn -1.0000 0.0000 -0.0055
usemtl None
s off
f 67//66 68//66 69//66
f 70//67 71//67 72//67
f 70//68 72//68 73//68
f 74//69 73//69 75//69
f 70//68 73//68 76//68
f 73//69 74//69 76//69
f 74//70 75//70 77//70
f 72//67 71//67 78//67
f 71//71 79//71 78//71
f 74//72 80//72 68//72
f 81//73 75//73 82//73
f 74//70 77//70 83//70
f 77//74 84//74 83//74
f 82//75 79//75 85//75
f 81//76 82//76 85//76
f 86//77 84//77 85//77
f 79//71 71//71 67//71
f 71//78 70//78 87//78
f 70//79 76//79 87//79
f 76//80 74//80 87//80
f 74//81 68//81 87//81
f 67//82 71//82 87//82
f 68//83 67//83 87//83
f 73//84 72//84 88//84
f 75//85 73//85 88//85
f 72//86 78//86 88//86
f 82//87 75//87 88//87
f 84//77 86//77 89//77
f 83//74 84//74 89//74
f 77//88 75//88 90//88
f 84//89 77//89 90//89
f 75//90 81//90 90//90
f 85//91 84//91 90//91
f 81//92 85//92 90//92
f 80//93 74//93 91//93
f 86//94 80//94 91//94
f 74//95 83//95 91//95
f 89//96 86//96 91//96
f 83//97 89//97 91//97
f 78//71 79//71 92//71
f 79//98 82//98 92//98
f 88//99 78//99 92//99
f 82//100 88//100 92//100
f 68//101 80//101 69//101
f 80//102 86//102 69//102
f 85//103 79//103 69//103
f 86//104 85//104 69//104
f 79//71 67//71 69//71
