# Blender v2.79 (sub 7) OBJ File: ''
# www.blender.org
mtllib wrist_flex.mtl
o convex_0
v -0.016976 0.017952 0.032611
v -0.013537 0.019335 0.034155
v -0.018138 0.020282 0.031387
v -0.035850 -0.020928 0.005524
v -0.016931 -0.020836 -0.032048
v 0.026457 -0.020821 -0.015602
v -0.033791 0.020540 -0.014628
v -0.011133 0.020437 -0.034720
v -0.022936 0.020387 -0.028722
v 0.025689 0.020497 0.025791
v 0.026853 -0.019891 0.024578
v 0.027036 0.020601 0.023540
v 0.000739 0.020557 0.036599
v -0.028013 0.020700 0.023659
v 0.026630 0.020333 -0.028651
v 0.026895 -0.009215 -0.028881
v 0.025752 0.020540 -0.033684
v -0.021891 -0.019961 0.029443
v 0.018390 0.020355 -0.039313
v 0.018808 -0.020126 -0.039999
v 0.011440 0.019331 -0.039619
v 0.027021 -0.019995 -0.027794
v -0.035944 0.020387 0.005546
v -0.036028 0.020443 -0.006272
v -0.033515 -0.019762 -0.015687
v -0.036086 -0.019892 -0.005091
v -0.009996 -0.020032 0.035533
v -0.029796 -0.020798 0.020705
v -0.033816 -0.019964 0.015140
v 0.025207 -0.020769 0.025355
v -0.028768 -0.019739 -0.022742
v -0.029940 0.019134 -0.021555
v -0.012308 -0.019836 -0.034697
v -0.019450 -0.019881 -0.031210
v 0.023444 0.008655 0.028309
v 0.013626 0.020306 0.033779
v 0.013844 0.007443 0.034202
v 0.003120 -0.017583 0.036601
v -0.008773 0.019313 0.035308
v -0.004027 -0.000899 0.036699
v 0.022161 0.003863 -0.038449
v 0.023546 -0.020073 -0.037486
v -0.007577 0.000288 -0.035950
v 0.004277 -0.011575 -0.038338
v 0.025823 -0.019994 -0.033759
v -0.036030 -0.019856 0.006753
v -0.034793 0.019226 0.012656
v -0.036145 0.019329 0.006784
v 0.011327 -0.019792 -0.039351
v -0.033210 -0.020728 -0.013205
v 0.019293 -0.020719 -0.029529
v -0.012265 0.017951 -0.034512
v 0.026526 -0.020867 0.012556
v 0.023385 0.020554 -0.036102
v 0.021960 0.020378 0.029180
v 0.016235 -0.019963 0.033023
v 0.012703 -0.020019 0.034310
v 0.024546 -0.019938 0.027020
v -0.022857 -0.019720 -0.028606
v -0.021701 0.014430 -0.029816
v -0.007528 -0.020724 0.027629
v -0.025492 -0.019982 0.025895
v -0.017016 0.010923 0.032721
v -0.032220 0.020259 0.017248
vn -0.4706 0.2149 0.8558
vn 0.0011 -1.0000 -0.0019
vn -0.0160 0.9996 -0.0232
vn 0.8579 0.0093 0.5138
vn 0.0302 0.9975 0.0642
vn 0.0018 1.0000 0.0070
vn 0.9851 0.0102 -0.1714
vn 0.2675 0.9635 -0.0070
vn -0.6274 0.0163 0.7785
vn 0.0414 0.0174 -0.9990
vn -0.0909 0.7959 -0.5986
vn 0.9996 0.0092 -0.0250
vn 0.9999 0.0095 -0.0078
vn 1.0000 -0.0044 0.0032
vn -0.0511 0.9987 0.0051
vn -0.0377 0.9993 0.0015
vn -0.9660 0.0002 -0.2586
vn -0.9718 -0.0055 -0.2359
vn -0.1002 -0.9778 0.1843
vn -0.4325 -0.8835 0.1801
vn -0.8111 -0.0068 0.5849
vn -0.0002 -1.0000 0.0086
vn -0.7152 -0.0002 -0.6989
vn -0.5918 0.6599 -0.4629
vn -0.8296 -0.0080 -0.5583
vn -0.8734 0.0068 -0.4869
vn -0.4107 -0.3413 -0.8455
vn 0.7433 0.0013 0.6690
vn 0.2143 0.0357 0.9761
vn 0.1915 0.0120 0.9814
vn -0.2309 0.0127 0.9729
vn -0.1390 0.0355 0.9897
vn -0.0741 -0.0376 0.9965
vn 0.0162 0.0011 0.9999
vn 0.3026 0.0193 -0.9529
vn 0.4686 -0.0084 -0.8834
vn 0.7663 0.0185 -0.6422
vn -0.2110 0.0224 -0.9772
vn -0.1935 0.0042 -0.9811
vn -0.2088 -0.0118 -0.9779
vn 0.9757 0.0021 -0.2191
vn 0.1150 -0.9922 -0.0492
vn 0.8533 0.0025 -0.5214
vn 0.9804 -0.0084 -0.1969
vn 0.2634 -0.9632 -0.0531
vn -0.8833 -0.4096 0.2279
vn -0.9852 -0.1714 0.0052
vn -0.9669 -0.0079 0.2551
vn -0.8850 0.4151 0.2110
vn -0.9807 0.1955 0.0079
vn -1.0000 0.0012 -0.0089
vn -1.0000 -0.0029 0.0047
vn -0.9745 -0.0030 0.2243
vn -0.0773 -0.9006 -0.4277
vn -0.0866 -0.0066 -0.9962
vn -0.1495 -0.0063 -0.9887
vn -0.0955 -0.8647 -0.4931
vn -0.1929 -0.0447 -0.9802
vn -0.2586 -0.9410 -0.2181
vn -0.0227 -0.9996 -0.0139
vn -0.4688 -0.8801 -0.0755
vn -0.4184 -0.8626 -0.2843
vn -0.7062 -0.6848 -0.1798
vn 0.0072 -0.9984 -0.0569
vn 0.0039 -0.9999 -0.0093
vn 0.0422 -0.9974 -0.0584
vn 0.0702 -0.9966 -0.0434
vn -0.4496 0.1308 -0.8836
vn -0.4388 0.0049 -0.8986
vn -0.2232 0.0201 -0.9746
vn -0.2759 0.0050 -0.9612
vn 0.0012 -1.0000 -0.0016
vn 0.4908 -0.8694 0.0572
vn 0.0001 -1.0000 0.0077
vn 0.9335 -0.3584 0.0037
vn 0.8051 -0.5931 -0.0029
vn -0.0038 0.9999 -0.0094
vn -0.0017 1.0000 -0.0039
vn -0.0055 0.9986 -0.0533
vn 0.0018 1.0000 -0.0009
vn 0.0072 1.0000 -0.0012
vn 0.5368 0.0787 -0.8400
vn 0.7140 0.0459 -0.6987
vn -0.2352 0.0129 0.9719
vn -0.1843 0.6069 0.7731
vn 0.0336 0.9968 0.0719
vn 0.0378 0.9957 0.0841
vn 0.6717 0.0300 0.7402
vn 0.5339 0.0048 0.8455
vn 0.4826 0.0370 0.8751
vn 0.5166 0.0082 0.8562
vn 0.0919 -0.9734 0.2098
vn 0.0055 -0.9958 0.0910
vn 0.0439 -0.5874 0.8081
vn 0.3425 -0.0105 0.9395
vn 0.2311 -0.0058 0.9729
vn 0.3851 -0.7556 0.5300
vn 0.5802 -0.6130 0.5363
vn 0.7269 -0.0029 0.6867
vn 0.5855 -0.0140 0.8106
vn -0.3841 -0.8370 -0.3898
vn -0.7043 -0.0034 -0.7099
vn -0.4496 -0.7081 -0.5444
vn -0.6075 -0.0076 -0.7943
vn -0.4642 0.0660 -0.8833
vn -0.4476 0.0070 -0.8942
vn -0.6724 -0.0035 -0.7402
vn 0.0048 -0.9960 0.0887
vn -0.0217 -0.9965 0.0805
vn -0.0005 -0.9999 0.0123
vn -0.7018 -0.0043 0.7123
vn -0.5307 -0.6512 0.5425
vn -0.7687 -0.0125 0.6395
vn -0.4557 -0.0225 0.8898
vn -0.6248 0.0158 0.7806
vn -0.3778 -0.0016 0.9259
vn -0.4151 0.0166 0.9096
vn -0.2288 0.9699 0.0834
vn -0.8362 0.0044 0.5484
vn -0.6801 0.6980 0.2241
vn -0.8732 0.0091 0.4872
vn -0.0453 0.9927 0.1115
vn -0.6098 0.1083 0.7851
vn -0.1646 0.8168 0.5530
usemtl None
s off
f 1//1 2//1 3//1
f 4//2 5//2 6//2
f 7//3 8//3 9//3
f 10//4 11//4 12//4
f 13//5 10//5 12//5
f 14//6 13//6 12//6
f 15//7 16//7 17//7
f 12//8 15//8 17//8
f 14//9 18//9 1//9
f 19//10 20//10 21//10
f 8//11 19//11 21//11
f 16//12 15//12 22//12
f 15//13 12//13 22//13
f 12//14 11//14 22//14
f 23//15 14//15 24//15
f 14//16 7//16 24//16
f 7//17 25//17 24//17
f 25//18 26//18 24//18
f 27//19 18//19 28//19
f 29//20 4//20 28//20
f 14//21 29//21 28//21
f 4//22 30//22 28//22
f 9//23 31//23 32//23
f 7//24 9//24 32//24
f 31//25 25//25 32//25
f 25//26 7//26 32//26
f 33//27 5//27 34//27
f 11//28 10//28 35//28
f 36//29 13//29 37//29
f 13//30 38//30 37//30
f 39//31 27//31 40//31
f 13//32 39//32 40//32
f 27//33 38//33 40//33
f 38//34 13//34 40//34
f 20//35 19//35 41//35
f 42//36 20//36 41//36
f 17//37 42//37 41//37
f 8//38 21//38 43//38
f 21//39 44//39 43//39
f 44//40 33//40 43//40
f 17//41 16//41 45//41
f 6//42 42//42 45//42
f 42//43 17//43 45//43
f 16//44 22//44 45//44
f 22//45 6//45 45//45
f 4//46 29//46 46//46
f 26//47 4//47 46//47
f 29//48 47//48 46//48
f 47//49 23//49 48//49
f 23//50 24//50 48//50
f 24//51 26//51 48//51
f 26//52 46//52 48//52
f 46//53 47//53 48//53
f 20//54 5//54 49//54
f 21//55 20//55 49//55
f 44//56 21//56 49//56
f 5//57 33//57 49//57
f 33//58 44//58 49//58
f 31//59 5//59 50//59
f 5//60 4//60 50//60
f 4//61 26//61 50//61
f 25//62 31//62 50//62
f 26//63 25//63 50//63
f 5//64 20//64 51//64
f 6//65 5//65 51//65
f 20//66 42//66 51//66
f 42//67 6//67 51//67
f 9//68 8//68 52//68
f 33//69 34//69 52//69
f 8//70 43//70 52//70
f 43//71 33//71 52//71
f 4//72 6//72 53//72
f 11//73 30//73 53//73
f 30//74 4//74 53//74
f 22//75 11//75 53//75
f 6//76 22//76 53//76
f 8//77 7//77 54//77
f 7//78 14//78 54//78
f 19//79 8//79 54//79
f 14//80 12//80 54//80
f 12//81 17//81 54//81
f 41//82 19//82 54//82
f 17//83 41//83 54//83
f 27//84 39//84 2//84
f 39//85 13//85 2//85
f 10//86 13//86 55//86
f 13//87 36//87 55//87
f 35//88 10//88 55//88
f 56//89 35//89 55//89
f 36//90 37//90 55//90
f 37//91 56//91 55//91
f 30//92 56//92 57//92
f 27//93 30//93 57//93
f 38//94 27//94 57//94
f 56//95 37//95 57//95
f 37//96 38//96 57//96
f 56//97 30//97 58//97
f 30//98 11//98 58//98
f 11//99 35//99 58//99
f 35//100 56//100 58//100
f 5//101 31//101 59//101
f 31//102 9//102 59//102
f 34//103 5//103 59//103
f 34//104 59//104 60//104
f 9//105 52//105 60//105
f 52//106 34//106 60//106
f 59//107 9//107 60//107
f 30//108 27//108 61//108
f 27//109 28//109 61//109
f 28//110 30//110 61//110
f 18//111 14//111 62//111
f 28//112 18//112 62//112
f 14//113 28//113 62//113
f 18//114 27//114 63//114
f 1//115 18//115 63//115
f 27//116 2//116 63//116
f 2//117 1//117 63//117
f 14//118 23//118 64//118
f 29//119 14//119 64//119
f 23//120 47//120 64//120
f 47//121 29//121 64//121
f 13//122 14//122 3//122
f 14//123 1//123 3//123
f 2//124 13//124 3//124
